<svg width="16" height="18" viewBox="0 0 16 18" fill="none" xmlns="http://www.w3.org/2000/svg">
<path d="M0 0V1.93188H1.49827V17.3555L3.2208 15.6413L4.75079 17.1646L6.28105 15.6413L7.8341 17.1876L9.38741 15.6413L10.9177 17.1646L12.4479 15.6413L14.1697 17.3555V1.93188H15.6679V0H0ZM11.4589 12.2191H8.11368C7.87224 12.2191 7.64069 12.1232 7.46997 11.9524C7.29924 11.7817 7.20333 11.5502 7.20333 11.3087C7.20333 11.0673 7.29924 10.8357 7.46997 10.665C7.64069 10.4943 7.87224 10.3984 8.11368 10.3984H11.4589C11.7004 10.3984 11.9319 10.4943 12.1027 10.665C12.2734 10.8357 12.3693 11.0673 12.3693 11.3087C12.3693 11.5502 12.2734 11.7817 12.1027 11.9524C11.9319 12.1232 11.7004 12.2191 11.4589 12.2191ZM11.4589 8.79922H4.20924C3.9678 8.79922 3.73625 8.70331 3.56553 8.53259C3.39481 8.36186 3.29889 8.13031 3.29889 7.88887C3.29889 7.64743 3.39481 7.41588 3.56553 7.24516C3.73625 7.07444 3.9678 6.97853 4.20924 6.97853H11.4589C11.7004 6.97853 11.9319 7.07444 12.1027 7.24516C12.2734 7.41588 12.3693 7.64743 12.3693 7.88887C12.3693 8.13031 12.2734 8.36186 12.1027 8.53259C11.9319 8.70331 11.7004 8.79922 11.4589 8.79922ZM11.4589 5.37938H4.20924C3.9678 5.37938 3.73625 5.28347 3.56553 5.11275C3.39481 4.94202 3.29889 4.71047 3.29889 4.46903C3.29889 4.22759 3.39481 3.99604 3.56553 3.82532C3.73625 3.6546 3.9678 3.55868 4.20924 3.55868H11.4589C11.7004 3.55868 11.9319 3.6546 12.1027 3.82532C12.2734 3.99604 12.3693 4.22759 12.3693 4.46903C12.3693 4.71047 12.2734 4.94202 12.1027 5.11275C11.9319 5.28347 11.7004 5.37938 11.4589 5.37938Z" fill="#6900B8"/>
</svg>
