<svg width="18" height="18" viewBox="0 0 18 18" fill="none" xmlns="http://www.w3.org/2000/svg">
<path d="M15.6068 4.80118V10.7985C16.1324 10.4938 16.5687 10.0564 16.8719 9.53011C17.1752 9.00384 17.3348 8.40717 17.3348 7.79985C17.3348 7.19252 17.1752 6.59586 16.8719 6.06959C16.5687 5.54332 16.1324 5.10592 15.6068 4.80118ZM4.33524 12.1332H9.29474L13.4219 14.6118C13.5537 14.6921 13.7046 14.7357 13.8589 14.7381C14.0132 14.7406 14.1654 14.7019 14.2997 14.6259C14.4341 14.5499 14.5457 14.4395 14.623 14.306C14.7004 14.1725 14.7407 14.0208 14.7398 13.8665V0.866516C14.7398 0.713545 14.6992 0.563307 14.6223 0.431063C14.5454 0.298819 14.4348 0.189281 14.3019 0.113576C14.1689 0.0378715 14.0182 -0.00130283 13.8652 3.30578e-05C13.7121 0.00136895 13.5622 0.0431675 13.4306 0.121182L9.29474 2.59985H4.33524C3.18546 2.59985 2.08278 3.05639 1.26976 3.86905C0.456747 4.68171 0 5.78391 0 6.93318V7.79985C0 8.94912 0.456747 10.0513 1.26976 10.864C2.08278 11.6766 3.18546 12.1332 4.33524 12.1332Z" fill="#6900B8"/>
<path d="M4.33594 13V16.4667C4.33594 16.6965 4.42729 16.917 4.58989 17.0795C4.75249 17.242 4.97303 17.3333 5.20298 17.3333H8.67117C8.90113 17.3333 9.12166 17.242 9.28427 17.0795C9.44687 16.917 9.53822 16.6965 9.53822 16.4667V13.286L9.06134 13H4.33594Z" fill="#6900B8"/>
</svg>
