<svg width="15" height="18" viewBox="0 0 15 18" fill="none" xmlns="http://www.w3.org/2000/svg">
<path d="M13.1484 6.25256L12.8517 14.7859C12.8264 15.5168 12.5023 16.2095 11.9482 16.7171C11.3941 17.2246 10.6537 17.5071 9.88395 17.5045H4.24531C3.47609 17.5071 2.73604 17.225 2.18204 16.7181C1.62804 16.2111 1.30363 15.5191 1.2776 14.7888L0.980828 6.25256C0.974334 6.06563 1.04627 5.8839 1.18082 5.74736C1.31537 5.61081 1.5015 5.53064 1.69827 5.52447C1.89504 5.5183 2.08633 5.58664 2.23006 5.71446C2.37379 5.84228 2.45819 6.01911 2.46468 6.20604L2.76145 14.7415C2.77623 15.1059 2.93906 15.4507 3.21576 15.7034C3.49245 15.9562 3.86146 16.0972 4.24531 16.0969H9.88395C10.2683 16.0972 10.6377 15.9557 10.9145 15.7024C11.1913 15.4491 11.3538 15.1036 11.3678 14.7387L11.6646 6.20604C11.6711 6.01911 11.7555 5.84228 11.8992 5.71446C12.0429 5.58664 12.2342 5.5183 12.431 5.52447C12.6278 5.53064 12.8139 5.61081 12.9484 5.74736C13.083 5.8839 13.1549 6.06563 13.1484 6.25256ZM14.13 3.4128C14.13 3.59973 14.0518 3.77901 13.9127 3.91119C13.7736 4.04337 13.5848 4.11763 13.3881 4.11763H0.741927C0.545156 4.11763 0.356443 4.04337 0.217305 3.91119C0.0781669 3.77901 0 3.59973 0 3.4128C0 3.22586 0.0781669 3.04659 0.217305 2.91441C0.356443 2.78223 0.545156 2.70797 0.741927 2.70797H3.0419C3.27698 2.70857 3.50388 2.62606 3.67846 2.4765C3.85303 2.32694 3.96279 2.12102 3.98637 1.89882C4.04112 1.37759 4.29818 0.894388 4.70745 0.543366C5.11672 0.192344 5.6489 -0.00135561 6.20028 7.14196e-06H7.92897C8.48036 -0.00135561 9.01254 0.192344 9.42181 0.543366C9.83108 0.894388 10.0881 1.37759 10.1429 1.89882C10.1665 2.12102 10.2762 2.32694 10.4508 2.4765C10.6254 2.62606 10.8523 2.70857 11.0874 2.70797H13.3873C13.5841 2.70797 13.7728 2.78223 13.912 2.91441C14.0511 3.04659 14.1293 3.22586 14.1293 3.4128H14.13ZM5.27436 2.70797H8.85638C8.75889 2.49634 8.69512 2.27209 8.66719 2.04261C8.64881 1.86887 8.5632 1.7078 8.42695 1.59061C8.29071 1.47341 8.11352 1.40843 7.92972 1.40826H6.20103C6.01723 1.40843 5.84004 1.47341 5.70379 1.59061C5.56754 1.7078 5.48193 1.86887 5.46355 2.04261C5.43538 2.27212 5.37211 2.49637 5.27436 2.70797ZM6.02148 13.3869V7.38522C6.02148 7.19829 5.94331 7.01901 5.80417 6.88683C5.66504 6.75465 5.47632 6.68039 5.27955 6.68039C5.08278 6.68039 4.89407 6.75465 4.75493 6.88683C4.61579 7.01901 4.53763 7.19829 4.53763 7.38522V13.3897C4.53763 13.5766 4.61579 13.7559 4.75493 13.8881C4.89407 14.0202 5.08278 14.0945 5.27955 14.0945C5.47632 14.0945 5.66504 14.0202 5.80417 13.8881C5.94331 13.7559 6.02148 13.5766 6.02148 13.3897V13.3869ZM9.59312 13.3869V7.38522C9.59312 7.19829 9.51495 7.01901 9.37581 6.88683C9.23667 6.75465 9.04796 6.68039 8.85119 6.68039C8.65442 6.68039 8.46571 6.75465 8.32657 6.88683C8.18743 7.01901 8.10926 7.19829 8.10926 7.38522V13.3897C8.10926 13.5766 8.18743 13.7559 8.32657 13.8881C8.46571 14.0202 8.65442 14.0945 8.85119 14.0945C9.04796 14.0945 9.23667 14.0202 9.37581 13.8881C9.51495 13.7559 9.59312 13.5766 9.59312 13.3897V13.3869Z" fill="#999999"/>
</svg>
