<svg width="12" height="15" viewBox="0 0 12 15" fill="none" xmlns="http://www.w3.org/2000/svg">
<path d="M5.35261 0.87H5.22261V1V9.78259L2.01175 6.61489L1.92044 6.52482L1.82915 6.61489L1.16367 7.27144L1.06987 7.36398L1.16367 7.45652L5.73192 11.9633L5.82322 12.0534L5.91452 11.9633L10.4828 7.45652L10.5766 7.36398L10.4828 7.27144L9.81729 6.61489L9.72599 6.52482L9.63469 6.61489L6.42383 9.78259V1V0.87H6.29383H5.35261ZM0.646484 11.5486H0.516484V11.6786V14V14.13H0.646484H11H11.13V14V11.6786V11.5486H11H10.0587H9.92873V11.6786V12.9414H1.71771V11.6786V11.5486H1.58771H0.646484Z" fill="#333333" stroke="#333333" stroke-width="0.26"/>
</svg>
