<svg width="16" height="20" viewBox="0 0 16 20" fill="none" xmlns="http://www.w3.org/2000/svg">
<path d="M7.54545 0.82H7.36546V1V13.1619L2.898 8.77418L2.77187 8.6503L2.64575 8.77418L1.72018 9.68324L1.58942 9.81166L1.72018 9.94008L8.07387 16.1803L8.2 16.3041L8.32613 16.1803L14.6798 9.94008L14.8106 9.81166L14.6798 9.68324L13.7543 8.77418L13.6281 8.6503L13.502 8.77418L9.03454 13.1619V1V0.82H8.85454H7.54545ZM1 15.6057H0.82V15.7857V19V19.18H1H15.4H15.58V19V15.7857V15.6057H15.4H14.0909H13.9109V15.7857V17.5343H2.48909V15.7857V15.6057H2.30909H1Z" fill="white" stroke="#6900B8" stroke-width="0.36"/>
</svg>
