<svg width="514" height="978" viewBox="0 0 514 978" fill="none" xmlns="http://www.w3.org/2000/svg">
<g opacity="0.8">
<path opacity="0.8" d="M-351.13 477.834C-350.145 474.73 -348.297 471.971 -345.802 469.878L55.4852 132.754C57.2129 131.294 59.2128 130.192 61.3694 129.51C63.5259 128.828 65.7963 128.58 68.0494 128.781C70.3048 128.97 72.5006 129.603 74.5106 130.643C76.5206 131.684 78.3051 133.111 79.7614 134.843L418.363 535.731C419.82 537.456 420.922 539.45 421.607 541.601C422.291 543.752 422.543 546.017 422.35 548.266C422.157 550.515 421.521 552.703 420.479 554.705C419.438 556.708 418.011 558.485 416.281 559.934L14.9939 897.059C13.2662 898.518 11.2663 899.621 9.10975 900.303C6.95322 900.985 4.68277 901.232 2.42975 901.032C0.174032 900.844 -2.02225 900.212 -4.03239 899.171C-6.04255 898.131 -7.82685 896.702 -9.2823 894.969L-347.884 494.081C-349.757 491.869 -351.037 489.218 -351.605 486.376C-352.173 483.535 -352.009 480.595 -351.13 477.834ZM420.31 551.567C421.12 549.025 421.27 546.318 420.745 543.702C420.22 541.086 419.038 538.646 417.309 536.613L78.706 135.73C77.3665 134.137 75.7252 132.824 73.8765 131.866C72.0278 130.909 70.0081 130.327 67.9336 130.152C65.861 129.968 63.7725 130.195 61.7886 130.822C59.8046 131.449 57.9644 132.462 56.3741 133.803L-344.913 470.928C-347.208 472.851 -348.907 475.389 -349.812 478.244C-350.62 480.788 -350.769 483.496 -350.243 486.113C-349.717 488.73 -348.535 491.171 -346.806 493.206L-8.20491 894.094C-6.86417 895.688 -5.22154 897.001 -3.37149 897.957C-1.52147 898.914 0.499429 899.495 2.57493 899.668C4.64757 899.854 6.73636 899.627 8.72054 899C10.7047 898.374 12.5448 897.36 14.1344 896.017L415.422 558.893C417.717 556.967 419.413 554.425 420.31 551.567Z" fill="url(#paint0_linear_2477_16155)"/>
<path opacity="0.8" d="M-349.048 461.185C-348.067 458.087 -346.204 455.342 -343.686 453.288L51.645 129.662C53.3506 128.259 55.3175 127.209 57.4319 126.572C59.5463 125.935 61.7663 125.723 63.9631 125.95C66.162 126.161 68.2973 126.805 70.246 127.846C72.1947 128.886 73.9181 130.302 75.3169 132.011L400.366 526.922C401.77 528.62 402.825 530.58 403.469 532.688C404.114 534.795 404.335 537.01 404.12 539.203C403.905 541.396 403.259 543.526 402.218 545.468C401.177 547.411 399.763 549.129 398.055 550.523L2.72479 874.149C-0.728092 876.963 -5.15477 878.297 -9.58829 877.858C-14.0218 877.42 -18.1018 875.245 -20.937 871.809L-345.996 476.889C-347.777 474.735 -348.989 472.169 -349.522 469.425C-350.055 466.682 -349.892 463.849 -349.048 461.185ZM402.102 542.204C402.879 539.76 403.03 537.16 402.54 534.642C402.051 532.124 400.937 529.77 399.302 527.794L74.2369 132.873C72.9544 131.303 71.3734 130.003 69.5853 129.047C67.7972 128.092 65.8375 127.501 63.8194 127.308C61.8036 127.101 59.767 127.296 57.8272 127.882C55.8875 128.468 54.0833 129.432 52.519 130.72L-342.812 454.346C-345.123 456.231 -346.833 458.75 -347.729 461.595C-348.511 464.046 -348.662 466.655 -348.17 469.18C-347.678 471.706 -346.559 474.067 -344.915 476.047L-19.8671 870.938C-17.2646 874.091 -13.5203 876.087 -9.45145 876.491C-5.38265 876.894 -1.31962 875.672 1.85078 873.091L397.181 549.464C399.496 547.577 401.207 545.053 402.102 542.204Z" fill="url(#paint1_linear_2477_16155)"/>
<path opacity="0.8" d="M-346.967 444.542C-345.995 441.448 -344.117 438.718 -341.576 436.703L47.8031 126.576C51.2034 123.869 55.5396 122.621 59.8595 123.108C64.1794 123.594 68.1297 125.775 70.843 129.171L382.361 518.092C383.706 519.768 384.706 521.693 385.305 523.757C385.905 525.82 386.091 527.981 385.853 530.117C385.615 532.252 384.958 534.32 383.919 536.201C382.88 538.082 381.481 539.739 379.8 541.078L-9.57344 851.207C-11.2542 852.552 -13.1851 853.55 -15.2545 854.144C-17.3239 854.739 -19.4906 854.917 -21.6293 854.668C-23.77 854.434 -25.8432 853.778 -27.7296 852.74C-29.616 851.701 -31.2783 850.299 -32.6208 848.616L-344.147 459.656C-345.823 457.562 -346.957 455.087 -347.449 452.451C-347.941 449.815 -347.775 447.098 -346.967 444.542ZM383.897 532.83C384.641 530.485 384.795 527.994 384.345 525.575C383.896 523.157 382.858 520.886 381.322 518.964L69.7735 130.017C67.282 126.912 63.663 124.92 59.7071 124.476C55.7514 124.031 51.7804 125.169 48.6622 127.643L-340.711 437.771C-343.039 439.62 -344.761 442.122 -345.656 444.956C-346.399 447.3 -346.553 449.791 -346.103 452.208C-345.654 454.626 -344.615 456.895 -343.079 458.816L-31.5587 847.775C-30.3288 849.317 -28.8059 850.602 -27.0777 851.554C-25.3495 852.506 -23.4502 853.107 -21.4889 853.322C-19.5299 853.548 -17.5456 853.384 -15.6504 852.84C-13.7553 852.295 -11.9869 851.38 -10.4474 850.148L378.926 540.02C381.264 538.179 382.995 535.678 383.894 532.842L383.897 532.83Z" fill="url(#paint2_linear_2477_16155)"/>
<path opacity="0.8" d="M-344.889 427.896C-343.92 424.806 -342.023 422.089 -339.457 420.113L43.9593 123.483C45.6169 122.196 47.513 121.249 49.5381 120.699C51.5633 120.148 53.6776 120.003 55.759 120.273C57.8425 120.532 59.8543 121.2 61.6791 122.239C63.5038 123.277 65.1055 124.665 66.3923 126.324L364.383 509.312C365.669 510.965 366.615 512.856 367.168 514.875C367.721 516.895 367.87 519.004 367.605 521.081C367.341 523.159 366.669 525.163 365.628 526.98C364.586 528.797 363.197 530.39 361.538 531.668L-21.8785 828.299C-25.2362 830.878 -29.4782 832.024 -33.6787 831.488C-37.8791 830.952 -41.6971 828.776 -44.2994 825.436L-342.29 442.448C-343.868 440.413 -344.928 438.026 -345.381 435.492C-345.834 432.958 -345.665 430.351 -344.889 427.896ZM365.695 523.48C366.402 521.23 366.553 518.841 366.135 516.52C365.716 514.198 364.74 512.012 363.29 510.151L65.3052 127.165C64.1316 125.647 62.6689 124.376 61.0014 123.426C59.334 122.476 57.4949 121.866 55.5904 121.631C53.6882 121.384 51.7561 121.516 49.9054 122.02C48.0548 122.524 46.3223 123.389 44.8079 124.565L-338.609 421.196C-340.955 423.003 -342.69 425.486 -343.579 428.311C-344.286 430.56 -344.437 432.947 -344.019 435.267C-343.601 437.587 -342.626 439.772 -341.178 441.633L-43.1876 824.62C-40.8073 827.672 -37.3164 829.657 -33.4771 830.144C-29.6378 830.631 -25.762 829.579 -22.6961 827.218L360.726 530.589C363.069 528.782 364.803 526.301 365.695 523.48Z" fill="url(#paint3_linear_2477_16155)"/>
<path opacity="0.8" d="M-342.821 411.25C-341.849 408.162 -339.932 405.457 -337.339 403.518L40.1205 120.385C41.7533 119.154 43.6143 118.258 45.5958 117.75C47.5772 117.243 49.6397 117.133 51.6639 117.428C53.6916 117.708 55.6436 118.388 57.407 119.427C59.1705 120.466 60.7103 121.845 61.9375 123.483L346.386 500.502C347.617 502.131 348.515 503.986 349.027 505.962C349.54 507.938 349.658 509.996 349.373 512.017C349.089 514.039 348.408 515.984 347.37 517.742C346.332 519.499 344.957 521.035 343.324 522.26L-34.142 805.391C-35.7739 806.622 -37.6338 807.518 -39.6142 808.025C-41.5946 808.533 -43.6562 808.644 -45.6795 808.35C-47.7067 808.069 -49.6584 807.391 -51.422 806.352C-53.1855 805.314 -54.7261 803.937 -55.9547 802.301L-340.405 425.268C-341.892 423.291 -342.887 420.988 -343.307 418.551C-343.727 416.113 -343.56 413.611 -342.821 411.25ZM347.487 514.118C348.164 511.964 348.317 509.68 347.934 507.456C347.551 505.231 346.642 503.13 345.284 501.326L60.8375 124.301C59.7183 122.81 58.3152 121.554 56.7088 120.607C55.1025 119.659 53.3247 119.039 51.4776 118.781C49.6323 118.514 47.7525 118.615 45.9465 119.078C44.1404 119.541 42.4438 120.356 40.9542 121.477L-336.506 404.609C-338.881 406.363 -340.642 408.824 -341.535 411.639C-342.209 413.796 -342.358 416.082 -341.969 418.309C-341.581 420.535 -340.667 422.636 -339.302 424.438L-54.8499 801.465C-53.7314 802.957 -52.3282 804.212 -50.7213 805.159C-49.1145 806.106 -47.3359 806.724 -45.4885 806.979C-43.6432 807.248 -41.7629 807.148 -39.9565 806.686C-38.1501 806.223 -36.4535 805.406 -34.965 804.284L342.495 521.151C344.856 519.389 346.603 516.928 347.487 514.118Z" fill="url(#paint4_linear_2477_16155)"/>
<path opacity="0.8" d="M-340.757 394.602C-339.785 391.518 -337.845 388.829 -335.224 386.934L36.279 117.3C39.537 114.945 43.5949 113.974 47.5666 114.6C51.5382 115.226 55.1011 117.397 57.4773 120.64L328.415 491.687C329.809 493.604 330.734 495.82 331.118 498.158C331.502 500.497 331.333 502.892 330.626 505.154C329.661 508.24 327.721 510.931 325.098 512.823L-46.4316 782.488C-48.0401 783.662 -49.8651 784.505 -51.8014 784.97C-53.7376 785.434 -55.7468 785.511 -57.7129 785.195C-59.6823 784.89 -61.5718 784.198 -63.2726 783.16C-64.9734 782.121 -66.4517 780.756 -67.6224 779.143L-338.536 408.078C-339.933 406.161 -340.862 403.943 -341.247 401.603C-341.633 399.263 -341.465 396.866 -340.757 394.602ZM329.316 504.759C329.961 502.702 330.114 500.524 329.764 498.397C329.414 496.271 328.57 494.256 327.3 492.514L56.3702 121.438C54.2096 118.49 50.9705 116.516 47.3599 115.947C43.7493 115.378 40.0602 116.26 37.0977 118.4L-334.411 388.032C-336.791 389.754 -338.55 392.199 -339.424 395.004C-340.068 397.06 -340.222 399.239 -339.873 401.366C-339.524 403.493 -338.683 405.509 -337.416 407.252L-66.5134 778.315C-65.4481 779.786 -64.1021 781.031 -62.5531 781.979C-61.0041 782.928 -59.2827 783.56 -57.4882 783.84C-55.6997 784.128 -53.8718 784.059 -52.11 783.638C-50.3483 783.216 -48.6876 782.45 -47.2238 781.383L324.279 511.749C326.672 510.026 328.439 507.573 329.316 504.759Z" fill="url(#paint5_linear_2477_16155)"/>
<path opacity="0.8" d="M-338.687 377.956C-337.722 374.87 -335.759 372.193 -333.106 370.345L32.4517 114.211C34.0369 113.095 35.8279 112.304 37.7211 111.883C39.6142 111.463 41.5719 111.423 43.4809 111.764C45.3933 112.089 47.2225 112.789 48.8627 113.824C50.503 114.86 51.9218 116.21 53.0371 117.796L310.402 482.892C311.716 484.742 312.582 486.872 312.932 489.113C313.281 491.355 313.104 493.647 312.414 495.809C311.447 498.892 309.482 501.567 306.829 503.412L-58.7285 759.546C-61.941 761.781 -65.9083 762.655 -69.7634 761.976C-73.6185 761.296 -77.0482 759.119 -79.303 755.919L-336.68 390.821C-337.989 388.978 -338.851 386.857 -339.2 384.624C-339.548 382.392 -339.372 380.109 -338.687 377.956ZM311.098 495.393C311.724 493.433 311.885 491.355 311.568 489.323C311.251 487.29 310.465 485.36 309.272 483.684L51.9023 118.58C50.8885 117.145 49.6015 115.923 48.1148 114.985C46.6282 114.047 44.9712 113.411 43.2387 113.114C41.5078 112.805 39.7329 112.842 38.0165 113.223C36.3001 113.604 34.6763 114.322 33.2391 115.334L-332.318 371.467C-334.725 373.14 -336.506 375.566 -337.381 378.363C-338.005 380.322 -338.165 382.4 -337.848 384.432C-337.531 386.464 -336.746 388.395 -335.555 390.072L-78.1807 755.182C-76.1338 758.091 -73.0167 760.069 -69.5131 760.682C-66.0095 761.295 -62.4058 760.494 -59.4929 758.454L306.065 502.321C308.464 500.634 310.235 498.196 311.098 495.393Z" fill="url(#paint6_linear_2477_16155)"/>
<path opacity="0.8" d="M-336.623 361.288C-335.658 358.202 -333.668 355.538 -330.982 353.737L28.6067 111.098C30.1689 110.037 31.926 109.297 33.7764 108.919C35.6269 108.542 37.5339 108.535 39.3871 108.899C41.2416 109.253 43.0079 109.969 44.5843 111.008C46.1608 112.047 47.5163 113.387 48.573 114.951L292.407 474.082C293.629 475.87 294.427 477.913 294.741 480.056C295.056 482.199 294.877 484.385 294.221 486.448C293.258 489.536 291.268 492.2 288.58 494L-71.0088 736.638C-72.5707 737.697 -74.3268 738.437 -76.176 738.815C-78.0251 739.192 -79.9309 739.201 -81.7833 738.839C-83.6405 738.488 -85.41 737.774 -86.9903 736.738C-88.5706 735.701 -89.9304 734.363 -90.9916 732.799L-334.83 373.661C-336.05 371.871 -336.845 369.825 -337.156 367.681C-337.466 365.537 -337.284 363.351 -336.623 361.288ZM292.91 486.034C293.502 484.168 293.663 482.192 293.379 480.255C293.094 478.317 292.373 476.47 291.27 474.853L47.4354 115.722C46.4798 114.307 45.2535 113.095 43.8274 112.156C42.4012 111.217 40.8033 110.569 39.1257 110.25C37.4485 109.919 35.7223 109.923 34.047 110.264C32.3717 110.604 30.7806 111.273 29.3659 112.232L-330.223 354.871C-332.648 356.494 -334.446 358.897 -335.319 361.681C-335.913 363.546 -336.074 365.521 -335.791 367.457C-335.507 369.393 -334.786 371.239 -333.683 372.855L-89.8423 732.032C-88.8851 733.446 -87.6575 734.658 -86.23 735.596C-84.8026 736.535 -83.2035 737.181 -81.5251 737.499C-79.8519 737.829 -78.1298 737.824 -76.4588 737.483C-74.7877 737.143 -73.2009 736.475 -71.7903 735.517L287.798 492.878C290.238 491.252 292.043 488.835 292.91 486.034Z" fill="url(#paint7_linear_2477_16155)"/>
<path opacity="0.8" d="M-334.577 344.654C-333.597 341.572 -331.578 338.926 -328.865 337.166L24.7668 108.026C26.3061 107.025 28.0282 106.338 29.8341 106.005C31.64 105.671 33.4939 105.698 35.2894 106.084C37.0862 106.461 38.7908 107.189 40.3048 108.227C41.8189 109.266 43.1126 110.593 44.1113 112.133L274.422 465.269C275.551 466.993 276.282 468.946 276.562 470.986C276.842 473.027 276.664 475.105 276.042 477.068C275.064 480.15 273.047 482.797 270.336 484.558L-83.3017 713.697C-84.8388 714.7 -86.5599 715.389 -88.3652 715.722C-90.1704 716.056 -92.024 716.028 -93.8185 715.64C-95.6161 715.263 -97.3215 714.534 -98.8365 713.495C-100.352 712.457 -101.646 711.129 -102.646 709.589L-332.94 356.413C-334.065 354.696 -334.796 352.751 -335.079 350.717C-335.362 348.684 -335.19 346.613 -334.577 344.654ZM274.72 476.67C275.282 474.899 275.442 473.026 275.19 471.185C274.938 469.345 274.279 467.583 273.263 466.028L42.9612 112.857C42.0588 111.466 40.8891 110.267 39.52 109.332C38.1509 108.396 36.6097 107.741 34.9857 107.405C33.3687 107.056 31.6984 107.031 30.0716 107.331C28.4449 107.632 26.8939 108.251 25.5084 109.155L-328.129 338.294C-330.575 339.878 -332.393 342.264 -333.271 345.042C-333.832 346.813 -333.991 348.686 -333.739 350.526C-333.487 352.367 -332.83 354.128 -331.814 355.684L-101.512 708.855C-100.609 710.246 -99.4397 711.444 -98.0711 712.381C-96.7025 713.318 -95.1619 713.974 -93.5383 714.312C-91.9247 714.666 -90.2573 714.697 -88.6317 714.404C-87.0061 714.111 -85.4545 713.5 -84.0661 712.605L269.606 483.432C272.044 481.839 273.852 479.449 274.72 476.67Z" fill="url(#paint8_linear_2477_16155)"/>
<path opacity="0.8" d="M-332.523 328.004C-331.548 324.919 -329.504 322.284 -326.758 320.574L20.9172 104.931C22.4324 103.987 24.1196 103.352 25.8815 103.062C27.6434 102.772 29.4453 102.833 31.1835 103.242C32.9197 103.643 34.5598 104.382 36.0095 105.418C37.4591 106.454 38.6899 107.766 39.6312 109.279L256.396 456.483C257.44 458.144 258.111 460.011 258.362 461.956C258.613 463.901 258.439 465.877 257.85 467.747C256.876 470.832 254.832 473.467 252.085 475.177L-95.6046 690.828C-98.671 692.717 -102.36 693.315 -105.867 692.493C-109.374 691.672 -112.413 689.496 -114.321 686.442L-331.086 339.238C-332.122 337.58 -332.787 335.717 -333.035 333.778C-333.284 331.839 -333.109 329.869 -332.523 328.004ZM256.544 467.316C257.072 465.636 257.229 463.862 257.005 462.116C256.781 460.37 256.181 458.693 255.247 457.201L38.4945 110C37.6484 108.637 36.541 107.456 35.2362 106.523C33.9313 105.591 32.4547 104.926 30.8916 104.566C29.332 104.199 27.7152 104.143 26.1341 104.403C24.5531 104.662 23.039 105.232 21.6791 106.079L-326.004 321.751C-328.477 323.281 -330.319 325.649 -331.195 328.422C-331.723 330.101 -331.882 331.873 -331.66 333.619C-331.438 335.364 -330.841 337.041 -329.909 338.534L-113.145 685.738C-111.427 688.482 -108.693 690.434 -105.54 691.169C-102.387 691.904 -99.0719 691.363 -96.3176 689.662L251.357 474.02C253.835 472.48 255.676 470.101 256.544 467.316Z" fill="url(#paint9_linear_2477_16155)"/>
<path opacity="0.8" d="M-330.481 311.362C-329.506 308.273 -327.424 305.653 -324.635 304.004L17.0892 101.862C20.1052 100.084 23.7023 99.5724 27.0948 100.438C30.4874 101.303 33.3998 103.476 35.1958 106.481L238.422 447.724C239.37 449.32 239.971 451.097 240.184 452.94C240.398 454.784 240.221 456.651 239.663 458.421C238.69 461.514 236.607 464.136 233.815 465.785L-107.903 667.929C-110.919 669.709 -114.518 670.221 -117.912 669.355C-121.306 668.49 -124.219 666.316 -126.015 663.309L-329.235 322.067C-330.185 320.471 -330.786 318.692 -331.001 316.847C-331.216 315.003 -331.039 313.134 -330.481 311.362ZM238.361 457.978C238.861 456.391 239.02 454.717 238.828 453.064C238.635 451.412 238.095 449.819 237.243 448.389L34.0231 107.147C32.4131 104.456 29.8039 102.511 26.7649 101.735C23.7259 100.96 20.5036 101.418 17.801 103.008L-323.925 305.182C-326.424 306.658 -328.29 309.005 -329.163 311.772C-329.663 313.357 -329.822 315.03 -329.631 316.681C-329.439 318.333 -328.9 319.925 -328.05 321.353L-124.824 662.597C-123.213 665.287 -120.603 667.232 -117.564 668.006C-114.524 668.78 -111.302 668.322 -108.6 666.73L233.118 464.586C235.626 463.102 237.496 460.742 238.365 457.96L238.361 457.978Z" fill="url(#paint10_linear_2477_16155)"/>
<path opacity="0.8" d="M-328.406 294.699C-327.429 291.602 -325.309 288.995 -322.476 287.407L13.2942 98.7256C16.2631 97.0658 19.7682 96.6475 23.0447 97.562C26.3212 98.4765 29.1031 100.649 30.7833 103.607L220.448 438.858C221.307 440.385 221.844 442.072 222.027 443.815C222.209 445.558 222.032 447.319 221.507 448.991C220.533 452.092 218.411 454.704 215.575 456.294L-120.189 644.996C-123.158 646.656 -126.663 647.074 -129.939 646.16C-133.216 645.246 -135.998 643.073 -137.678 640.115L-327.349 304.843C-328.209 303.314 -328.746 301.625 -328.927 299.88C-329.109 298.136 -328.931 296.372 -328.406 294.699ZM220.222 448.621C220.693 447.127 220.851 445.551 220.687 443.993C220.524 442.435 220.042 440.926 219.272 439.562L29.5547 104.271C28.0546 101.632 25.5711 99.6926 22.6463 98.877C19.7215 98.0615 16.5929 98.4359 13.9434 99.9184L-321.825 288.594C-324.356 290.01 -326.25 292.34 -327.118 295.107C-327.589 296.601 -327.747 298.177 -327.584 299.735C-327.42 301.293 -326.938 302.802 -326.168 304.166L-136.484 639.441C-134.983 642.082 -132.499 644.021 -129.573 644.837C-126.647 645.653 -123.518 645.278 -120.867 643.796L214.894 455.149C217.433 453.728 219.33 451.386 220.195 448.608L220.222 448.621Z" fill="url(#paint11_linear_2477_16155)"/>
<path opacity="0.8" d="M-326.4 278.035C-325.421 274.939 -323.262 272.354 -320.389 270.84L9.42391 95.6569C10.8679 94.8841 12.4511 94.4053 14.0815 94.2485C15.712 94.0916 17.3575 94.2597 18.9226 94.743C20.4903 95.2154 21.949 95.9933 23.2146 97.0319C24.4803 98.0705 25.5279 99.3492 26.297 100.794L202.442 430.109C203.222 431.561 203.703 433.156 203.855 434.798C204.007 436.44 203.828 438.095 203.328 439.667C202.357 442.776 200.193 445.373 197.31 446.89L-132.486 622.079C-135.407 623.62 -138.819 623.944 -141.979 622.979C-145.138 622.015 -147.788 619.841 -149.35 616.931L-325.504 287.627C-326.289 286.17 -326.772 284.57 -326.926 282.922C-327.08 281.274 -326.901 279.612 -326.4 278.035ZM202.029 439.256C202.478 437.853 202.639 436.374 202.502 434.908C202.366 433.441 201.934 432.017 201.233 430.722L25.0868 101.414C24.4044 100.127 23.4732 98.9878 22.3474 98.0632C21.2215 97.1386 19.9234 96.4466 18.5281 96.0272C17.1364 95.598 15.6734 95.4489 14.2237 95.5883C12.774 95.7277 11.3663 96.153 10.0821 96.8396L-319.731 272.023C-322.294 273.375 -324.218 275.686 -325.083 278.451C-325.532 279.853 -325.693 281.332 -325.556 282.799C-325.42 284.265 -324.988 285.689 -324.287 286.984L-148.141 616.293C-146.751 618.882 -144.393 620.816 -141.582 621.673C-138.77 622.53 -135.734 622.24 -133.136 620.867L196.68 445.696C197.951 445.027 199.078 444.113 199.995 443.008C200.913 441.903 201.604 440.628 202.029 439.256Z" fill="url(#paint12_linear_2477_16155)"/>
<path opacity="0.8" d="M-324.372 261.378C-323.891 259.831 -323.101 258.399 -322.05 257.167C-320.999 255.935 -319.708 254.93 -318.256 254.212L5.60022 92.526C8.47658 91.0939 11.8033 90.8591 14.8527 91.873C17.9021 92.8869 20.4258 95.067 21.8718 97.9363L184.484 421.291C185.896 424.091 186.157 427.333 185.21 430.322C184.727 431.868 183.936 433.3 182.883 434.532C181.831 435.763 180.54 436.768 179.088 437.486L-144.786 599.167C-147.66 600.592 -150.98 600.824 -154.024 599.812C-157.067 598.8 -159.587 596.625 -161.034 593.763L-323.646 270.428C-325.065 267.623 -325.326 264.373 -324.372 261.378ZM183.875 429.901C184.714 427.251 184.481 424.378 183.227 421.898L20.6194 98.5252C19.3396 95.9876 17.1072 94.0596 14.41 93.1625C11.7129 92.2653 8.77035 92.4721 6.2255 93.7376L-317.637 255.447C-318.924 256.081 -320.069 256.971 -321.002 258.062C-321.934 259.153 -322.635 260.422 -323.062 261.792C-323.902 264.444 -323.668 267.321 -322.409 269.803L-159.801 593.15C-158.52 595.689 -156.287 597.617 -153.589 598.515C-150.89 599.412 -147.947 599.205 -145.401 597.94L178.451 436.247C179.738 435.611 180.882 434.722 181.815 433.631C182.747 432.54 183.448 431.271 183.875 429.901Z" fill="url(#paint13_linear_2477_16155)"/>
<path opacity="0.8" d="M-322.354 244.717C-321.864 243.169 -321.058 241.74 -319.988 240.52C-318.917 239.3 -317.604 238.316 -316.133 237.629L1.76759 89.4357C3.16565 88.7803 4.6796 88.4079 6.22228 88.3398C7.76499 88.2718 9.30593 88.5095 10.7564 89.0393C12.2073 89.5614 13.5407 90.3652 14.6798 91.4044C15.8188 92.4436 16.7412 93.6976 17.3938 95.0944L166.469 412.482C167.72 415.139 167.923 418.169 167.039 420.968C166.549 422.517 165.744 423.947 164.672 425.168C163.601 426.389 162.288 427.375 160.816 428.062L-157.083 576.249C-159.905 577.568 -163.135 577.715 -166.066 576.658C-168.996 575.602 -171.389 573.428 -172.722 570.613L-321.791 253.226C-323.046 250.562 -323.248 247.523 -322.354 244.717ZM165.728 420.554C166.504 418.083 166.322 415.41 165.218 413.066L16.1489 95.6791C15.5719 94.4456 14.7567 93.3384 13.7501 92.421C12.7435 91.5037 11.5655 90.7944 10.2837 90.334C9.00414 89.8659 7.64458 89.6556 6.2834 89.7151C4.92222 89.7745 3.58627 90.1026 2.35253 90.6805L-315.548 238.874C-316.846 239.482 -318.003 240.352 -318.948 241.429C-319.893 242.506 -320.604 243.767 -321.038 245.133C-321.815 247.606 -321.634 250.281 -320.53 252.627L-171.459 570.008C-170.283 572.483 -168.179 574.395 -165.603 575.329C-163.027 576.263 -160.186 576.144 -157.697 574.997L160.22 426.814C161.521 426.209 162.683 425.34 163.631 424.262C164.58 423.185 165.294 421.922 165.728 420.554Z" fill="url(#paint14_linear_2477_16155)"/>
<path opacity="0.8" d="M-320.342 228.049C-319.85 226.494 -319.03 225.063 -317.936 223.853C-316.842 222.643 -315.501 221.682 -314.003 221.037L-2.07068 86.3384C-0.697571 85.7412 0.780281 85.4218 2.27757 85.3988C3.77486 85.3758 5.26192 85.6495 6.6529 86.2042C8.04863 86.7531 9.32159 87.5734 10.3981 88.6175C11.4746 89.6616 12.3332 90.9089 12.9243 92.287L148.457 403.707C149.54 406.216 149.679 409.032 148.849 411.635C148.361 413.181 147.549 414.603 146.465 415.808C145.382 417.013 144.053 417.971 142.568 418.619L-169.353 553.346C-172.128 554.543 -175.263 554.593 -178.075 553.487C-180.887 552.38 -183.146 550.205 -184.359 547.438L-319.898 236.017C-321.001 233.501 -321.159 230.672 -320.342 228.049ZM147.585 411.209C148.304 408.914 148.173 406.436 147.216 404.229L11.6759 92.8142C11.1565 91.6087 10.4037 90.5178 9.46075 89.6046C8.5178 88.6913 7.40336 87.9736 6.18175 87.493C4.95943 87.0043 3.65238 86.7628 2.33615 86.7826C1.01995 86.8024 -0.279259 87.083 -1.48619 87.6082L-313.43 222.304C-314.748 222.872 -315.928 223.718 -316.889 224.783C-317.851 225.849 -318.572 227.108 -319.003 228.477C-319.724 230.77 -319.593 233.246 -318.632 235.45L-183.1 546.87C-182.035 549.304 -180.05 551.219 -177.579 552.196C-175.108 553.172 -172.35 553.132 -169.909 552.084L141.988 417.376C143.31 416.81 144.494 415.967 145.46 414.903C146.425 413.838 147.15 412.579 147.585 411.209Z" fill="url(#paint15_linear_2477_16155)"/>
<path opacity="0.8" d="M-318.337 211.386C-317.846 209.82 -317.011 208.383 -315.892 207.182C-314.773 205.981 -313.4 205.046 -311.873 204.445L-5.8913 83.2459C-3.16314 82.1703 -0.11993 82.2177 2.57366 83.3778C5.26726 84.5379 7.39237 86.7164 8.48495 89.4376L130.463 394.886C131.401 397.246 131.498 399.857 130.74 402.281C130.248 403.845 129.413 405.28 128.294 406.48C127.176 407.68 125.803 408.615 124.277 409.215L-181.682 530.427C-184.411 531.501 -187.453 531.452 -190.146 530.292C-192.84 529.132 -194.965 526.955 -196.059 524.235L-318.037 218.787C-318.985 216.428 -319.092 213.814 -318.337 211.386ZM129.44 401.895C130.108 399.774 130.023 397.487 129.2 395.421L7.22165 89.9733C6.26946 87.5879 4.41168 85.676 2.05423 84.6555C-0.303217 83.6349 -2.96876 83.5886 -5.36004 84.5266L-311.349 205.73C-312.686 206.256 -313.888 207.075 -314.867 208.126C-315.847 209.177 -316.578 210.434 -317.009 211.804C-317.67 213.927 -317.583 216.213 -316.762 218.279L-194.784 523.727C-193.826 526.108 -191.965 528.013 -189.608 529.027C-187.251 530.042 -184.588 530.084 -182.2 529.143L123.797 407.93C125.127 407.406 126.324 406.593 127.3 405.549C128.276 404.505 129.007 403.257 129.44 401.895Z" fill="url(#paint16_linear_2477_16155)"/>
<path opacity="0.8" d="M-316.341 194.712C-315.849 193.136 -314.998 191.697 -313.854 190.507C-312.709 189.317 -311.304 188.409 -309.748 187.856L-9.71625 80.1512C-7.03585 79.1948 -4.08582 79.337 -1.50967 80.5469C1.06649 81.7567 3.05967 83.9361 4.03498 86.6093L112.508 386.112C113.315 388.314 113.367 390.722 112.656 392.956C112.167 394.533 111.316 395.974 110.171 397.165C109.027 398.355 107.62 399.262 106.063 399.812L-193.986 507.513C-196.667 508.469 -199.617 508.327 -202.193 507.117C-204.769 505.907 -206.762 503.728 -207.738 501.055L-316.211 201.552C-317.009 199.349 -317.055 196.944 -316.341 194.712ZM111.329 392.532C111.947 390.583 111.901 388.485 111.198 386.566L2.72442 87.0632C1.87552 84.7322 0.138186 82.8319 -2.10781 81.7775C-4.3538 80.7231 -6.92582 80.6005 -9.26172 81.4365L-309.293 189.142C-310.651 189.622 -311.877 190.412 -312.876 191.449C-313.874 192.486 -314.617 193.742 -315.046 195.116C-315.661 197.065 -315.615 199.162 -314.915 201.082L-206.442 500.584C-205.593 502.913 -203.858 504.811 -201.615 505.866C-199.372 506.92 -196.803 507.045 -194.469 506.214L105.563 398.509C106.922 398.028 108.15 397.237 109.151 396.2C110.152 395.162 110.897 393.907 111.329 392.532Z" fill="url(#paint17_linear_2477_16155)"/>
<path opacity="0.8" d="M-314.359 178.043C-313.859 176.456 -312.985 175.012 -311.811 173.833C-310.637 172.654 -309.197 171.773 -307.612 171.266L-13.5427 77.0572C-10.9112 76.2168 -8.05386 76.4522 -5.59523 77.712C-3.13662 78.9719 -1.27676 81.1536 -0.422351 83.7803L94.5037 377.307C95.1692 379.352 95.1797 381.553 94.5338 383.604C94.0331 385.19 93.1592 386.633 91.9853 387.811C90.8114 388.989 89.3719 389.868 87.7875 390.375L-206.29 484.594C-208.922 485.433 -211.779 485.197 -214.237 483.937C-216.695 482.677 -218.555 480.497 -219.411 477.871L-314.337 184.344C-315.001 182.297 -315.009 180.094 -314.359 178.043ZM93.2156 383.194C93.7818 381.415 93.7726 379.502 93.1893 377.728L-1.72937 84.1974C-2.47988 81.9179 -4.0994 80.0263 -6.23632 78.9332C-8.37328 77.8401 -10.8551 77.6339 -13.143 78.3593L-307.194 172.573C-308.568 173.016 -309.816 173.782 -310.835 174.805C-311.853 175.829 -312.612 177.081 -313.049 178.457C-313.609 180.237 -313.6 182.148 -313.022 183.923L-218.098 477.455C-217.355 479.733 -215.741 481.625 -213.608 482.717C-211.475 483.81 -208.996 484.014 -206.713 483.286L87.3627 389.073C88.7373 388.632 89.9861 387.868 91.0045 386.845C92.0229 385.823 92.7811 384.571 93.2156 383.194Z" fill="url(#paint18_linear_2477_16155)"/>
<path opacity="0.8" d="M-312.387 161.363C-311.887 159.761 -310.992 158.309 -309.786 157.141C-308.58 155.974 -307.1 155.127 -305.482 154.679L-17.3623 73.9639C-14.7796 73.2441 -12.0169 73.575 -9.67708 74.8841C-7.33723 76.1933 -5.61014 78.3746 -4.87278 80.9519L76.509 368.516C77.049 370.404 77.0216 372.409 76.43 374.281C75.9267 375.882 75.0315 377.332 73.8256 378.499C72.6197 379.666 71.1413 380.514 69.5246 380.965L-218.595 461.68C-221.178 462.401 -223.942 462.07 -226.282 460.759C-228.622 459.449 -230.348 457.265 -231.083 454.686L-312.468 167.134C-313.005 165.244 -312.977 163.238 -312.387 161.363ZM75.1134 373.865C75.6226 372.25 75.6485 370.521 75.1879 368.892L-6.1997 81.3259C-6.83626 79.0994 -8.32807 77.2151 -10.3494 76.0843C-12.3707 74.9535 -14.7572 74.6682 -16.988 75.2906L-305.082 156.006C-306.478 156.397 -307.754 157.131 -308.793 158.141C-309.833 159.151 -310.604 160.405 -311.035 161.788C-311.543 163.404 -311.569 165.132 -311.11 166.762L-229.757 454.318C-229.123 456.545 -227.633 458.43 -225.612 459.561C-223.591 460.692 -221.205 460.976 -218.975 460.352L69.1504 379.639C70.547 379.25 71.8241 378.518 72.8656 377.509C73.907 376.501 74.6797 375.248 75.1134 373.865Z" fill="url(#paint19_linear_2477_16155)"/>
<path opacity="0.8" d="M-310.433 144.68C-309.917 143.065 -308.994 141.61 -307.753 140.455C-306.511 139.301 -304.993 138.486 -303.345 138.088L-21.2001 70.8666C-18.6593 70.2558 -15.9798 70.6781 -13.75 72.0408C-11.5203 73.4036 -9.92253 75.5954 -9.30777 78.1349L58.5371 359.732C58.9538 361.459 58.8913 363.267 58.3566 364.961C57.8432 366.575 56.9218 368.03 55.6813 369.184C54.4408 370.338 52.9234 371.152 51.2758 371.547L-230.888 438.77C-233.423 439.37 -236.093 438.943 -238.314 437.582C-240.535 436.221 -242.128 434.037 -242.744 431.506L-310.606 149.904C-311.021 148.179 -310.961 146.373 -310.433 144.68ZM57.0329 364.524C57.4916 363.067 57.5426 361.513 57.1804 360.029L-10.6515 78.4541C-11.1871 76.2809 -12.558 74.4063 -14.4667 73.2367C-16.3755 72.0672 -18.6683 71.6969 -20.8482 72.2062L-303.006 139.431C-304.428 139.76 -305.739 140.456 -306.807 141.45C-307.876 142.444 -308.666 143.7 -309.097 145.094C-309.555 146.55 -309.608 148.104 -309.251 149.588L-241.4 431.187C-240.864 433.358 -239.494 435.231 -237.586 436.4C-235.679 437.57 -233.388 437.94 -231.209 437.433L50.9548 370.21C52.3735 369.876 53.6803 369.178 54.7457 368.184C55.811 367.189 56.5978 365.934 57.0282 364.542L57.0329 364.524Z" fill="url(#paint20_linear_2477_16155)"/>
<path opacity="0.8" d="M-308.49 127.987C-307.974 126.351 -307.026 124.885 -305.746 123.743C-304.466 122.602 -302.901 121.827 -301.216 121.502L-25.0078 67.7711C-22.5266 67.299 -19.9593 67.8248 -17.8633 69.2343C-15.7674 70.6437 -14.3124 72.823 -13.8141 75.2987L40.4981 350.937C40.8034 352.496 40.7156 354.106 40.2426 355.623C39.7272 357.261 38.7784 358.728 37.4966 359.871C36.2149 361.013 34.6479 361.788 32.9616 362.112L-243.236 415.871C-245.717 416.349 -248.286 415.826 -250.383 414.417C-252.481 413.008 -253.936 410.827 -254.431 408.349L-308.747 132.679C-309.052 131.118 -308.964 129.505 -308.49 127.987ZM38.9554 355.215C39.3614 353.919 39.4342 352.541 39.167 351.209L-15.1393 75.5725C-15.5627 73.4485 -16.8097 71.5784 -18.6078 70.3706C-20.406 69.1629 -22.6091 68.7158 -24.7358 69.127L-300.943 122.852C-302.384 123.131 -303.723 123.795 -304.819 124.772C-305.915 125.749 -306.726 127.004 -307.167 128.404C-307.577 129.703 -307.652 131.084 -307.388 132.42L-253.092 408.048C-252.669 410.172 -251.422 412.042 -249.623 413.25C-247.825 414.457 -245.622 414.905 -243.495 414.493L32.7158 360.776C34.1597 360.495 35.5013 359.831 36.5993 358.852C37.6973 357.873 38.5112 356.617 38.9554 355.215Z" fill="url(#paint21_linear_2477_16155)"/>
</g>
<defs>
<linearGradient id="paint0_linear_2477_16155" x1="134.04" y1="146.181" x2="-63.5599" y2="883.633" gradientUnits="userSpaceOnUse">
<stop stop-color="#6900B8"/>
<stop offset="1" stop-color="#FF0047" stop-opacity="0.42"/>
</linearGradient>
<linearGradient id="paint1_linear_2477_16155" x1="123.697" y1="141.717" x2="-69.3244" y2="862.084" gradientUnits="userSpaceOnUse">
<stop stop-color="#6900B8"/>
<stop offset="1" stop-color="#FF0047" stop-opacity="0.42"/>
</linearGradient>
<linearGradient id="paint2_linear_2477_16155" x1="113.335" y1="137.247" x2="-75.1105" y2="840.535" gradientUnits="userSpaceOnUse">
<stop stop-color="#6900B8"/>
<stop offset="1" stop-color="#FF0047" stop-opacity="0.42"/>
</linearGradient>
<linearGradient id="paint3_linear_2477_16155" x1="102.988" y1="132.771" x2="-80.8839" y2="818.99" gradientUnits="userSpaceOnUse">
<stop stop-color="#6900B8"/>
<stop offset="1" stop-color="#FF0047" stop-opacity="0.42"/>
</linearGradient>
<linearGradient id="paint4_linear_2477_16155" x1="92.649" y1="128.286" x2="-86.6641" y2="797.492" gradientUnits="userSpaceOnUse">
<stop stop-color="#6900B8"/>
<stop offset="1" stop-color="#FF0047" stop-opacity="0.42"/>
</linearGradient>
<linearGradient id="paint5_linear_2477_16155" x1="82.3015" y1="123.819" x2="-92.4444" y2="775.98" gradientUnits="userSpaceOnUse">
<stop stop-color="#6900B8"/>
<stop offset="1" stop-color="#FF0047" stop-opacity="0.42"/>
</linearGradient>
<linearGradient id="paint6_linear_2477_16155" x1="71.9528" y1="119.326" x2="-98.2174" y2="754.41" gradientUnits="userSpaceOnUse">
<stop stop-color="#6900B8"/>
<stop offset="1" stop-color="#FF0047" stop-opacity="0.42"/>
</linearGradient>
<linearGradient id="paint7_linear_2477_16155" x1="61.6092" y1="114.813" x2="-104.013" y2="732.924" gradientUnits="userSpaceOnUse">
<stop stop-color="#6900B8"/>
<stop offset="1" stop-color="#FF0047" stop-opacity="0.42"/>
</linearGradient>
<linearGradient id="paint8_linear_2477_16155" x1="51.2578" y1="110.341" x2="-109.791" y2="711.382" gradientUnits="userSpaceOnUse">
<stop stop-color="#6900B8"/>
<stop offset="1" stop-color="#FF0047" stop-opacity="0.42"/>
</linearGradient>
<linearGradient id="paint9_linear_2477_16155" x1="40.9143" y1="105.841" x2="-115.583" y2="689.897" gradientUnits="userSpaceOnUse">
<stop stop-color="#6900B8"/>
<stop offset="1" stop-color="#FF0047" stop-opacity="0.42"/>
</linearGradient>
<linearGradient id="paint10_linear_2477_16155" x1="30.5618" y1="101.366" x2="-121.382" y2="668.427" gradientUnits="userSpaceOnUse">
<stop stop-color="#6900B8"/>
<stop offset="1" stop-color="#FF0047" stop-opacity="0.42"/>
</linearGradient>
<linearGradient id="paint11_linear_2477_16155" x1="20.2457" y1="96.8113" x2="-127.152" y2="646.908" gradientUnits="userSpaceOnUse">
<stop stop-color="#6900B8"/>
<stop offset="1" stop-color="#FF0047" stop-opacity="0.42"/>
</linearGradient>
<linearGradient id="paint12_linear_2477_16155" x1="9.88305" y1="92.3117" x2="-132.959" y2="625.404" gradientUnits="userSpaceOnUse">
<stop stop-color="#6900B8"/>
<stop offset="1" stop-color="#FF0047" stop-opacity="0.42"/>
</linearGradient>
<linearGradient id="paint13_linear_2477_16155" x1="-0.425947" y1="87.757" x2="-138.734" y2="603.931" gradientUnits="userSpaceOnUse">
<stop stop-color="#6900B8"/>
<stop offset="1" stop-color="#FF0047" stop-opacity="0.42"/>
</linearGradient>
<linearGradient id="paint14_linear_2477_16155" x1="-10.773" y1="83.2231" x2="-144.545" y2="582.468" gradientUnits="userSpaceOnUse">
<stop stop-color="#6900B8"/>
<stop offset="1" stop-color="#FF0047" stop-opacity="0.42"/>
</linearGradient>
<linearGradient id="paint15_linear_2477_16155" x1="-21.1257" y1="78.6798" x2="-150.36" y2="560.989" gradientUnits="userSpaceOnUse">
<stop stop-color="#6900B8"/>
<stop offset="1" stop-color="#FF0047" stop-opacity="0.42"/>
</linearGradient>
<linearGradient id="paint16_linear_2477_16155" x1="-31.4485" y1="74.1411" x2="-156.147" y2="539.523" gradientUnits="userSpaceOnUse">
<stop stop-color="#6900B8"/>
<stop offset="1" stop-color="#FF0047" stop-opacity="0.42"/>
</linearGradient>
<linearGradient id="paint17_linear_2477_16155" x1="-41.7562" y1="69.5879" x2="-161.93" y2="518.081" gradientUnits="userSpaceOnUse">
<stop stop-color="#6900B8"/>
<stop offset="1" stop-color="#FF0047" stop-opacity="0.42"/>
</linearGradient>
<linearGradient id="paint18_linear_2477_16155" x1="-52.0869" y1="65.0129" x2="-167.74" y2="496.638" gradientUnits="userSpaceOnUse">
<stop stop-color="#6900B8"/>
<stop offset="1" stop-color="#FF0047" stop-opacity="0.42"/>
</linearGradient>
<linearGradient id="paint19_linear_2477_16155" x1="-62.4084" y1="60.4323" x2="-173.548" y2="475.213" gradientUnits="userSpaceOnUse">
<stop stop-color="#6900B8"/>
<stop offset="1" stop-color="#FF0047" stop-opacity="0.42"/>
</linearGradient>
<linearGradient id="paint20_linear_2477_16155" x1="-72.7165" y1="55.8237" x2="-179.354" y2="453.801" gradientUnits="userSpaceOnUse">
<stop stop-color="#6900B8"/>
<stop offset="1" stop-color="#FF0047" stop-opacity="0.42"/>
</linearGradient>
<linearGradient id="paint21_linear_2477_16155" x1="-83.059" y1="51.2287" x2="-185.198" y2="432.417" gradientUnits="userSpaceOnUse">
<stop stop-color="#6900B8"/>
<stop offset="1" stop-color="#FF0047" stop-opacity="0.42"/>
</linearGradient>
</defs>
</svg>
