<svg width="232" height="616" viewBox="0 0 232 616" fill="none" xmlns="http://www.w3.org/2000/svg">
<g opacity="0.8">
<path opacity="0.8" d="M38.319 372.63C38.4333 370.113 39.2614 367.682 40.7068 365.619L273.04 33.3943C274.039 31.958 275.313 30.7339 276.787 29.7926C278.262 28.8514 279.909 28.2117 281.632 27.9105C283.355 27.6002 285.123 27.6336 286.833 28.0086C288.543 28.3835 290.162 29.0928 291.597 30.0956L624.845 261.835C626.279 262.831 627.502 264.101 628.443 265.571C629.385 267.041 630.027 268.683 630.333 270.402C630.639 272.121 630.602 273.883 630.225 275.588C629.848 277.292 629.137 278.906 628.135 280.335L395.802 612.559C394.803 613.996 393.529 615.22 392.055 616.161C390.58 617.102 388.933 617.742 387.209 618.043C385.486 618.355 383.719 618.322 382.009 617.947C380.298 617.572 378.679 616.862 377.245 615.858L43.9969 384.119C42.1546 382.841 40.6672 381.117 39.674 379.107C38.6809 377.098 38.2146 374.869 38.319 372.63ZM629.47 273.277C629.566 271.215 629.136 269.163 628.22 267.313C627.304 265.464 625.932 263.878 624.234 262.704L290.986 30.9696C289.666 30.0472 288.177 29.3946 286.604 29.0495C285.031 28.7043 283.405 28.6734 281.82 28.9584C280.235 29.2356 278.72 29.8238 277.363 30.6892C276.006 31.5546 274.834 32.68 273.915 34.0005L41.581 366.225C40.2515 368.122 39.4901 370.358 39.386 372.672C39.2911 374.735 39.7223 376.787 40.6391 378.638C41.5558 380.488 42.928 382.075 44.6268 383.249L377.875 614.989C379.196 615.911 380.686 616.563 382.259 616.907C383.833 617.252 385.46 617.282 387.045 616.995C388.631 616.719 390.146 616.131 391.503 615.266C392.86 614.4 394.032 613.274 394.951 611.953L627.284 279.729C628.613 277.831 629.372 275.592 629.47 273.277Z" fill="url(#paint0_linear_2477_16179)"/>
<path opacity="0.8" d="M36.5425 359.773C36.6549 357.262 37.4978 354.838 38.9679 352.799L269.553 31.853C270.546 30.4637 271.806 29.2853 273.258 28.3859C274.71 27.4866 276.327 26.8842 278.013 26.6136C279.699 26.3311 281.423 26.385 283.087 26.7721C284.751 27.1592 286.323 27.8719 287.71 28.8691L609.635 258.856C611.025 259.844 612.205 261.097 613.108 262.543C614.012 263.988 614.62 265.598 614.899 267.28C615.178 268.962 615.121 270.682 614.732 272.342C614.344 274.002 613.63 275.569 612.634 276.952L382.049 597.898C380.032 600.692 376.992 602.575 373.591 603.135C370.191 603.695 366.707 602.887 363.901 600.887L41.9666 370.896C40.2047 369.643 38.7851 367.968 37.8375 366.025C36.89 364.082 36.4447 361.932 36.5425 359.773ZM613.992 269.927C614.083 267.945 613.675 265.972 612.806 264.189C611.936 262.405 610.632 260.869 609.015 259.72L287.075 29.7291C285.803 28.8129 284.361 28.158 282.834 27.8023C281.307 27.4466 279.724 27.3971 278.178 27.6568C276.63 27.9061 275.148 28.4597 273.816 29.2857C272.484 30.1116 271.329 31.1935 270.418 32.4686L39.8327 353.415C38.4828 355.286 37.7099 357.511 37.6095 359.815C37.5165 361.803 37.9255 363.783 38.7986 365.571C39.6718 367.36 40.981 368.9 42.6059 370.05L364.526 600.022C367.102 601.857 370.299 602.599 373.42 602.086C376.541 601.572 379.332 599.846 381.184 597.283L611.769 276.336C613.121 274.463 613.894 272.235 613.992 269.927Z" fill="url(#paint1_linear_2477_16179)"/>
<path opacity="0.8" d="M34.7663 346.921C34.8731 344.416 35.7295 342 37.2246 339.986L266.066 30.317C268.064 27.6133 271.054 25.8132 274.38 25.3118C277.705 24.8105 281.093 25.649 283.8 27.6432L594.416 255.863C595.756 256.846 596.889 258.084 597.75 259.506C598.611 260.928 599.183 262.506 599.432 264.149C599.682 265.792 599.605 267.468 599.206 269.081C598.806 270.695 598.092 272.213 597.105 273.55L368.268 583.219C367.282 584.56 366.039 585.693 364.612 586.551C363.184 587.41 361.601 587.976 359.953 588.219C358.307 588.472 356.627 588.398 355.009 587.999C353.392 587.601 351.869 586.887 350.529 585.897L39.899 357.649C38.2277 356.421 36.8849 354.799 35.9897 352.928C35.0945 351.057 34.6743 348.994 34.7663 346.921ZM598.515 266.567C598.601 264.667 598.217 262.774 597.397 261.057C596.577 259.34 595.347 257.851 593.815 256.723L283.17 28.489C280.687 26.6685 277.584 25.9045 274.54 26.3642C271.495 26.8238 268.756 28.4696 266.921 30.9419L38.0847 340.611C36.7156 342.458 35.9299 344.672 35.8286 346.968C35.7426 348.868 36.1266 350.76 36.9465 352.477C37.7663 354.193 38.9967 355.681 40.5289 356.808L351.155 585.056C352.382 585.963 353.777 586.617 355.259 586.983C356.741 587.348 358.28 587.417 359.789 587.185C361.298 586.962 362.748 586.442 364.055 585.656C365.361 584.869 366.5 583.832 367.403 582.603L596.24 272.935C597.618 271.091 598.411 268.876 598.515 266.577V266.567Z" fill="url(#paint2_linear_2477_16179)"/>
<path opacity="0.8" d="M32.9847 334.069C33.0906 331.566 33.9635 329.156 35.4852 327.166L262.573 28.7751C263.554 27.4817 264.781 26.3951 266.184 25.5781C267.587 24.7611 269.138 24.2299 270.747 24.015C272.356 23.7914 273.992 23.8875 275.564 24.298C277.135 24.7084 278.61 25.4251 279.903 26.4068L579.225 252.902C580.516 253.88 581.602 255.103 582.419 256.502C583.237 257.9 583.77 259.446 583.988 261.051C584.207 262.656 584.106 264.288 583.692 265.854C583.278 267.42 582.558 268.889 581.575 270.176L354.487 568.567C352.494 571.166 349.554 572.872 346.309 573.312C343.063 573.752 339.775 572.891 337.162 570.916L37.84 344.421C36.2539 343.217 34.9837 341.645 34.138 339.842C33.2924 338.039 32.8966 336.058 32.9847 334.069ZM583.041 263.226C583.12 261.403 582.754 259.588 581.976 257.937C581.199 256.286 580.032 254.849 578.576 253.748L279.259 27.2526C278.078 26.3533 276.731 25.6968 275.295 25.3209C273.859 24.9451 272.363 24.8574 270.893 25.0629C269.422 25.2594 268.005 25.7451 266.723 26.4919C265.441 27.2387 264.32 28.2319 263.424 29.4142L36.336 327.805C34.9446 329.625 34.1456 331.828 34.047 334.116C33.969 335.938 34.334 337.752 35.1109 339.402C35.8878 341.052 37.0533 342.488 38.5075 343.589L337.829 570.084C340.218 571.888 343.224 572.672 346.19 572.267C349.156 571.862 351.841 570.301 353.659 567.923L580.752 269.532C582.141 267.712 582.939 265.512 583.041 263.226Z" fill="url(#paint3_linear_2477_16179)"/>
<path opacity="0.8" d="M31.1981 321.217C31.3054 318.715 32.1966 316.311 33.7456 314.343L259.085 27.2294C260.058 25.9822 261.27 24.9405 262.648 24.1646C264.027 23.3886 265.546 22.8938 267.118 22.7089C268.689 22.5123 270.283 22.6291 271.809 23.0526C273.335 23.476 274.761 24.1977 276.006 25.1759L564.014 249.923C565.26 250.893 566.302 252.1 567.081 253.474C567.86 254.847 568.359 256.361 568.552 257.929C568.744 259.496 568.625 261.086 568.201 262.607C567.777 264.128 567.057 265.55 566.082 266.793L340.738 553.906C339.765 555.153 338.555 556.194 337.177 556.97C335.799 557.746 334.281 558.241 332.71 558.426C331.139 558.623 329.545 558.506 328.02 558.084C326.494 557.661 325.067 556.941 323.822 555.964L35.809 331.208C34.3022 330.028 33.0981 328.507 32.2963 326.769C31.4945 325.032 31.118 323.129 31.1981 321.217ZM567.563 259.876C567.637 258.131 567.295 256.394 566.563 254.809C565.831 253.223 564.732 251.835 563.356 250.759L275.348 26.0077C274.213 25.1173 272.913 24.4601 271.524 24.0738C270.134 23.6875 268.681 23.5798 267.249 23.7568C265.817 23.9271 264.433 24.3789 263.176 25.0862C261.92 25.7934 260.815 26.7422 259.926 27.8779L34.5869 314.991C33.163 316.777 32.3404 318.968 32.2368 321.25C32.165 322.997 32.5114 324.735 33.2472 326.321C33.983 327.906 35.0868 329.293 36.467 330.366L324.48 555.118C325.614 556.009 326.914 556.666 328.304 557.052C329.694 557.437 331.147 557.544 332.578 557.364C334.011 557.196 335.396 556.745 336.653 556.037C337.91 555.33 339.014 554.38 339.901 553.243L565.241 266.13C566.653 264.341 567.465 262.153 567.563 259.876Z" fill="url(#paint4_linear_2477_16179)"/>
<path opacity="0.8" d="M29.4065 308.365C29.5152 305.866 30.4266 303.468 32.0057 301.528L255.597 25.6921C257.559 23.2802 260.397 21.7426 263.49 21.4151C266.583 21.0876 269.679 21.9968 272.104 23.9441L548.822 246.934C550.247 248.087 551.382 249.557 552.137 251.228C552.892 252.898 553.246 254.721 553.17 256.553C553.067 259.052 552.156 261.451 550.575 263.39L326.97 539.253C326.003 540.452 324.808 541.448 323.455 542.182C322.101 542.917 320.615 543.377 319.083 543.534C317.551 543.701 316 543.562 314.522 543.127C313.043 542.691 311.665 541.967 310.467 540.997L33.7636 317.988C32.3362 316.836 31.1986 315.365 30.442 313.694C29.6854 312.023 29.3308 310.198 29.4065 308.365ZM552.112 256.52C552.182 254.854 551.861 253.196 551.173 251.677C550.486 250.158 549.452 248.822 548.155 247.775L271.437 24.7617C269.232 22.9918 266.417 22.1655 263.605 22.463C260.794 22.7606 258.214 24.1579 256.429 26.35L32.8329 302.185C31.3989 303.948 30.5744 306.127 30.4828 308.398C30.4134 310.063 30.7347 311.722 31.421 313.241C32.1074 314.761 33.1398 316.098 34.4357 317.147L311.13 540.156C312.221 541.041 313.476 541.702 314.823 542.101C316.17 542.499 317.583 542.627 318.98 542.477C320.374 542.334 321.726 541.917 322.957 541.249C324.189 540.581 325.277 539.676 326.157 538.586L549.748 262.751C551.191 260.985 552.021 258.798 552.112 256.52Z" fill="url(#paint5_linear_2477_16179)"/>
<path opacity="0.8" d="M27.6215 295.513C27.7246 293.014 28.6555 290.62 30.2678 288.708L252.12 24.1508C253.081 22.9992 254.26 22.0495 255.591 21.3566C256.921 20.6637 258.376 20.2415 259.87 20.1143C261.364 19.9739 262.871 20.1308 264.304 20.576C265.737 21.0213 267.067 21.7459 268.218 22.7082L533.604 243.969C534.956 245.087 536.029 246.505 536.739 248.11C537.449 249.715 537.775 251.463 537.693 253.216C537.588 255.714 536.655 258.106 535.042 260.016L313.19 524.574C311.237 526.887 308.448 528.334 305.432 528.598C302.415 528.863 299.417 527.922 297.092 525.983L31.6966 304.723C30.35 303.608 29.2808 302.196 28.5736 300.598C27.8664 298.999 27.5405 297.259 27.6215 295.513ZM536.626 253.169C536.702 251.58 536.406 249.995 535.762 248.54C535.118 247.085 534.144 245.8 532.918 244.786L267.527 23.5211C266.482 22.6513 265.276 21.9961 263.977 21.5929C262.679 21.1898 261.314 21.0466 259.96 21.1716C258.605 21.2872 257.286 21.6702 256.08 22.2985C254.874 22.9268 253.804 23.788 252.933 24.8322L31.0809 289.39C29.6177 291.121 28.7727 293.29 28.6791 295.555C28.6047 297.144 28.901 298.729 29.5446 300.184C30.1883 301.639 31.1615 302.924 32.3876 303.938L297.783 525.208C299.894 526.971 302.619 527.825 305.36 527.582C308.1 527.339 310.632 526.018 312.4 523.911L534.252 259.353C535.708 257.612 536.543 255.437 536.626 253.169Z" fill="url(#paint6_linear_2477_16179)"/>
<path opacity="0.8" d="M25.8254 282.647C25.9288 280.148 26.8822 277.759 28.5281 275.876L248.622 22.5959C249.577 21.4905 250.742 20.5854 252.049 19.9329C253.356 19.2803 254.779 18.8934 256.237 18.7944C257.693 18.6875 259.156 18.8695 260.542 19.33C261.928 19.7904 263.209 20.5203 264.312 21.4776L518.393 240.99C519.664 242.082 520.669 243.448 521.333 244.986C521.997 246.524 522.302 248.193 522.224 249.866C522.123 252.366 521.169 254.755 519.521 256.638L299.427 509.918C298.472 511.022 297.308 511.926 296.002 512.578C294.696 513.231 293.274 513.619 291.817 513.719C290.36 513.829 288.895 513.65 287.506 513.192C286.118 512.734 284.834 512.006 283.728 511.05L29.6421 291.533C28.3722 290.439 27.3684 289.071 26.7071 287.531C26.0458 285.991 25.7443 284.321 25.8254 282.647ZM521.162 249.819C521.231 248.307 520.955 246.798 520.355 245.407C519.755 244.017 518.846 242.781 517.698 241.793L263.616 22.2811C262.619 21.4152 261.46 20.7552 260.206 20.339C258.953 19.9229 257.629 19.7588 256.312 19.8564C254.992 19.9446 253.703 20.2936 252.52 20.8832C251.336 21.4728 250.281 22.2914 249.416 23.2914L29.3224 276.571C27.8356 278.27 26.9734 280.425 26.8783 282.68C26.8079 284.192 27.0828 285.7 27.6822 287.09C28.2816 288.48 29.1897 289.715 30.3377 290.701L284.433 510.247C285.432 511.112 286.592 511.771 287.846 512.187C289.1 512.602 290.425 512.765 291.742 512.667C293.058 512.578 294.344 512.229 295.524 511.641C296.705 511.052 297.757 510.235 298.619 509.236L518.713 255.956C520.21 254.253 521.075 252.086 521.162 249.819Z" fill="url(#paint7_linear_2477_16179)"/>
<path opacity="0.8" d="M24.025 269.809C24.14 267.31 25.1184 264.929 26.7934 263.071L245.139 21.0687C246.089 20.0126 247.238 19.1547 248.52 18.5442C249.803 17.9338 251.194 17.5828 252.612 17.5115C254.03 17.4332 255.45 17.6362 256.789 18.1088C258.128 18.5814 259.36 19.3143 260.415 20.2651L503.192 238.006C504.38 239.068 505.318 240.38 505.935 241.849C506.553 243.318 506.836 244.906 506.764 246.497C506.651 248.995 505.674 251.377 504.001 253.236L285.65 495.238C284.703 496.295 283.555 497.154 282.273 497.765C280.991 498.375 279.6 498.726 278.182 498.795C276.763 498.873 275.343 498.67 274.003 498.197C272.663 497.725 271.43 496.992 270.375 496.041L27.6018 278.268C26.4174 277.21 25.4823 275.902 24.8638 274.44C24.2453 272.977 23.9588 271.396 24.025 269.809ZM505.697 246.464C505.762 245.029 505.507 243.597 504.95 242.272C504.393 240.948 503.549 239.763 502.478 238.805L259.7 21.0358C258.748 20.1771 257.634 19.516 256.423 19.0909C255.213 18.6658 253.931 18.4852 252.65 18.5594C251.372 18.6222 250.119 18.9377 248.964 19.4878C247.808 20.0379 246.773 20.8116 245.919 21.7641L27.569 263.766C26.0589 265.44 25.1781 267.586 25.0778 269.837C25.0138 271.273 25.2694 272.705 25.8262 274.029C26.383 275.354 27.2271 276.538 28.2975 277.497L271.075 495.266C272.028 496.124 273.142 496.786 274.352 497.211C275.562 497.637 276.844 497.819 278.125 497.747C279.402 497.688 280.654 497.378 281.81 496.833C282.966 496.289 284.002 495.521 284.861 494.575L503.23 252.54C504.733 250.863 505.605 248.714 505.697 246.464Z" fill="url(#paint8_linear_2477_16179)"/>
<path opacity="0.8" d="M22.2262 256.957C22.3369 254.457 23.337 252.079 25.0464 250.251L241.643 19.5271C242.587 18.5182 243.72 17.7057 244.978 17.1363C246.237 16.567 247.595 16.252 248.976 16.2095C250.353 16.1613 251.727 16.3856 253.017 16.8694C254.308 17.3533 255.49 18.0872 256.496 19.029L487.965 235.05C489.077 236.081 489.952 237.342 490.529 238.745C491.106 240.148 491.372 241.659 491.307 243.175C491.197 245.674 490.196 248.053 488.487 249.88L271.88 480.614C269.967 482.639 267.331 483.825 264.546 483.913C261.761 484.001 259.055 482.984 257.018 481.084L25.5493 265.063C24.4429 264.032 23.5731 262.773 22.9994 261.374C22.4258 259.975 22.162 258.468 22.2262 256.957ZM490.244 243.114C490.302 241.753 490.065 240.396 489.548 239.137C489.031 237.877 488.247 236.744 487.25 235.816L255.791 19.7949C254.886 18.9464 253.822 18.2853 252.661 17.8498C251.499 17.4143 250.263 17.2129 249.023 17.2574C247.784 17.2951 246.565 17.5773 245.436 18.0877C244.306 18.5982 243.289 19.3269 242.442 20.2319L25.8454 250.98C24.3039 252.619 23.4017 254.756 23.3026 257.004C23.2437 258.364 23.4799 259.72 23.9951 260.98C24.5103 262.24 25.2923 263.373 26.2873 264.302L257.756 480.323C259.589 482.028 262.022 482.94 264.525 482.858C267.028 482.776 269.396 481.707 271.114 479.886L487.711 249.161C489.254 247.515 490.154 245.368 490.244 243.114Z" fill="url(#paint9_linear_2477_16179)"/>
<path opacity="0.8" d="M20.4196 244.115C20.53 241.611 21.561 239.237 23.3149 237.447L238.168 18.0003C240.066 16.0685 242.651 14.9659 245.359 14.9334C248.067 14.9008 250.678 15.9409 252.622 17.8265L472.781 232.104C473.809 233.106 474.614 234.314 475.143 235.649C475.672 236.983 475.913 238.414 475.851 239.848C475.742 242.353 474.711 244.73 472.955 246.521L258.107 465.967C256.209 467.901 253.623 469.004 250.914 469.037C248.204 469.069 245.592 468.028 243.649 466.141L23.4936 251.864C22.4646 250.861 21.659 249.653 21.1293 248.317C20.5996 246.982 20.3577 245.55 20.4196 244.115ZM474.788 239.778C474.845 238.492 474.628 237.209 474.154 236.013C473.679 234.817 472.957 233.734 472.034 232.837L251.879 18.5595C250.137 16.8712 247.798 15.9399 245.372 15.969C242.946 15.998 240.63 16.985 238.93 18.7146L24.0811 238.185C22.5092 239.788 21.5851 241.915 21.4865 244.157C21.4303 245.442 21.6462 246.724 22.12 247.919C22.5939 249.114 23.3151 250.196 24.2362 251.093L244.396 465.371C246.138 467.058 248.478 467.989 250.904 467.959C253.33 467.929 255.645 466.941 257.345 465.211L472.194 245.764C473.771 244.154 474.696 242.016 474.788 239.764V239.778Z" fill="url(#paint10_linear_2477_16179)"/>
<path opacity="0.8" d="M18.634 231.249C18.7436 228.74 19.8059 226.367 21.6046 224.614L234.705 16.4167C236.591 14.5822 239.126 13.568 241.757 13.5953C244.388 13.6226 246.902 14.6892 248.749 16.5624L457.577 229.078C458.524 230.047 459.264 231.2 459.749 232.465C460.234 233.731 460.454 235.082 460.397 236.437C460.289 238.949 459.227 241.326 457.426 243.081L244.335 451.292C242.45 453.127 239.914 454.141 237.283 454.114C234.652 454.086 232.139 453.02 230.291 451.146L21.4542 238.617C20.506 237.646 19.7666 236.492 19.2815 235.225C18.7965 233.957 18.5762 232.604 18.634 231.249ZM459.363 236.418C459.415 235.207 459.218 233.998 458.784 232.867C458.349 231.735 457.687 230.705 456.839 229.839L247.964 17.3049C246.315 15.633 244.071 14.6814 241.722 14.6576C239.374 14.6338 237.111 15.5399 235.429 17.178L22.3284 225.37C20.7211 226.935 19.7728 229.055 19.6775 231.296C19.6251 232.507 19.8221 233.715 20.2563 234.847C20.6905 235.979 21.3526 237.009 22.2015 237.874L231.048 450.404C232.698 452.076 234.943 453.028 237.292 453.052C239.641 453.075 241.905 452.169 243.588 450.531L456.688 242.362C458.301 240.791 459.25 238.662 459.339 236.413L459.363 236.418Z" fill="url(#paint11_linear_2477_16179)"/>
<path opacity="0.8" d="M16.7972 218.397C16.9087 215.888 18.0047 213.524 19.8477 211.818L231.199 14.8989C232.123 14.0324 233.21 13.3578 234.397 12.9141C235.584 12.4705 236.847 12.2667 238.113 12.3144C239.379 12.3535 240.625 12.6427 241.778 13.1653C242.932 13.6879 243.971 14.4336 244.835 15.3594L442.372 226.146C443.246 227.075 443.924 228.17 444.367 229.366C444.809 230.563 445.007 231.836 444.948 233.11C444.845 235.627 443.748 238.001 441.898 239.712L230.56 436.631C228.686 438.367 226.201 439.292 223.648 439.204C221.094 439.116 218.679 438.022 216.929 436.161L19.3871 225.384C18.5089 224.453 17.8271 223.354 17.3822 222.154C16.9373 220.953 16.7383 219.676 16.7972 218.397ZM443.895 233.063C443.95 231.925 443.774 230.787 443.378 229.719C442.982 228.651 442.375 227.674 441.592 226.846L244.054 16.0643C243.287 15.2394 242.363 14.575 241.337 14.1095C240.311 13.6441 239.202 13.3869 238.076 13.3529C236.95 13.3109 235.827 13.4923 234.772 13.8867C233.717 14.2811 232.75 14.8807 231.928 15.6508L20.5762 212.57C18.9323 214.093 17.9575 216.205 17.8642 218.444C17.8095 219.582 17.9854 220.719 18.3811 221.787C18.7769 222.856 19.3844 223.833 20.1673 224.661L217.705 435.442C219.262 437.098 221.411 438.071 223.683 438.149C225.955 438.226 228.165 437.402 229.831 435.856L441.188 238.946C442.003 238.191 442.662 237.283 443.127 236.274C443.591 235.264 443.853 234.173 443.895 233.063Z" fill="url(#paint12_linear_2477_16179)"/>
<path opacity="0.8" d="M14.9768 205.545C15.0264 204.293 15.3299 203.064 15.8689 201.934C16.4078 200.803 17.1709 199.793 18.1119 198.966L227.715 13.3245C229.577 11.6786 232.016 10.8372 234.497 10.9843C236.979 11.1313 239.301 12.2549 240.956 14.1093L427.189 223.152C428.805 224.961 429.648 227.331 429.539 229.754C429.488 231.006 429.183 232.235 428.644 233.365C428.104 234.496 427.341 235.506 426.399 236.333L216.782 421.974C214.921 423.615 212.486 424.452 210.01 424.305C207.533 424.158 205.215 423.038 203.56 421.19L17.3316 212.161C15.7097 210.349 14.8641 207.973 14.9768 205.545ZM428.458 229.707C428.554 227.559 427.805 225.459 426.371 223.857L240.138 14.8001C238.673 13.1603 236.62 12.1667 234.425 12.0363C232.23 11.906 230.073 12.6496 228.425 14.1046L18.8216 199.765C17.9869 200.497 17.3098 201.391 16.8314 202.392C16.3531 203.394 16.0835 204.483 16.039 205.592C15.942 207.742 16.6931 209.844 18.1307 211.447L204.359 420.485C205.824 422.125 207.879 423.119 210.075 423.249C212.27 423.379 214.428 422.636 216.077 421.18L425.676 235.534C426.51 234.802 427.187 233.908 427.665 232.906C428.143 231.905 428.413 230.816 428.458 229.707Z" fill="url(#paint13_linear_2477_16179)"/>
<path opacity="0.8" d="M13.1484 192.693C13.2047 191.439 13.5207 190.21 14.0766 189.084C14.6324 187.958 15.4159 186.959 16.3775 186.152L224.232 11.7835C225.145 11.0139 226.202 10.4325 227.341 10.0728C228.48 9.71316 229.679 9.58227 230.869 9.68771C232.057 9.78737 233.215 10.121 234.274 10.6694C235.333 11.2178 236.273 11.9701 237.04 12.8831L411.965 220.178C413.431 221.912 414.19 224.135 414.089 226.404C414.034 227.659 413.718 228.889 413.162 230.016C412.606 231.143 411.823 232.142 410.86 232.95L203.006 407.314C201.161 408.863 198.777 409.62 196.376 409.417C193.975 409.215 191.752 408.07 190.193 406.233L15.2729 198.938C13.8017 197.199 13.0427 194.968 13.1484 192.693ZM413.027 226.357C413.112 224.355 412.441 222.394 411.147 220.864L236.227 13.5691C235.549 12.7631 234.718 12.099 233.783 11.6151C232.847 11.1312 231.825 10.8371 230.775 10.7497C229.725 10.6562 228.667 10.7712 227.662 11.0881C226.657 11.4051 225.724 11.9177 224.918 12.5964L17.0637 186.965C16.2161 187.679 15.5255 188.561 15.0353 189.554C14.5451 190.548 14.2659 191.633 14.2154 192.74C14.1296 194.744 14.8007 196.706 16.0955 198.238L191.015 405.528C192.389 407.142 194.344 408.149 196.456 408.331C198.568 408.514 200.666 407.856 202.296 406.501L410.165 232.137C411.016 231.424 411.71 230.542 412.203 229.548C412.696 228.553 412.976 227.466 413.027 226.357Z" fill="url(#paint14_linear_2477_16179)"/>
<path opacity="0.8" d="M11.3157 179.836C11.3716 178.576 11.6981 177.342 12.2731 176.219C12.8481 175.096 13.6581 174.11 14.6481 173.328L220.745 10.2374C221.651 9.51635 222.691 8.98189 223.806 8.66493C224.92 8.34796 226.086 8.25476 227.236 8.39072C228.389 8.52142 229.504 8.87945 230.517 9.44407C231.531 10.0087 232.422 10.7687 233.139 11.6801L396.751 217.227C398.062 218.885 398.73 220.961 398.631 223.072C398.576 224.324 398.253 225.55 397.685 226.667C397.117 227.784 396.316 228.766 395.336 229.548L189.253 392.657C187.42 394.107 185.087 394.772 182.765 394.508C180.443 394.244 178.319 393.072 176.859 391.247L13.2428 185.701C11.9148 184.042 11.2305 181.959 11.3157 179.836ZM397.601 223.007C397.678 221.148 397.085 219.323 395.928 217.866L232.312 12.3238C231.683 11.5271 230.902 10.8628 230.015 10.3692C229.127 9.87564 228.151 9.56255 227.142 9.44801C226.131 9.32757 225.106 9.40883 224.126 9.68711C223.147 9.96539 222.232 10.4351 221.436 11.0692L15.3297 174.16C14.459 174.849 13.7469 175.717 13.2416 176.705C12.7364 177.693 12.4498 178.779 12.4014 179.888C12.322 181.746 12.9162 183.57 14.0747 185.024L177.686 390.571C178.969 392.176 180.835 393.21 182.877 393.445C184.919 393.68 186.971 393.098 188.586 391.825L394.654 228.735C395.528 228.048 396.244 227.18 396.753 226.192C397.261 225.204 397.551 224.117 397.601 223.007Z" fill="url(#paint15_linear_2477_16179)"/>
<path opacity="0.8" d="M9.47932 166.984C9.53274 165.716 9.86946 164.475 10.4648 163.354C11.0602 162.233 11.899 161.259 12.9199 160.504L217.273 8.69107C219.096 7.34121 221.379 6.76738 223.624 7.09491C225.869 7.42243 227.893 8.62469 229.254 10.4391L381.542 214.238C382.715 215.814 383.311 217.745 383.229 219.708C383.175 220.975 382.838 222.214 382.243 223.335C381.647 224.455 380.809 225.428 379.789 226.183L175.455 378C173.631 379.349 171.348 379.922 169.104 379.595C166.859 379.267 164.836 378.066 163.474 376.252L11.1855 172.454C10.0043 170.881 9.40169 168.949 9.47932 166.984ZM382.181 219.679C382.255 217.961 381.734 216.27 380.705 214.891L228.417 11.0923C227.228 9.50061 225.457 8.44408 223.492 8.15352C221.526 7.86296 219.525 8.362 217.926 9.5416L13.5685 161.359C12.6749 162.02 11.9406 162.872 11.4193 163.854C10.8979 164.835 10.6029 165.921 10.5557 167.031C10.4869 168.749 11.0094 170.439 12.0362 171.819L164.324 375.618C165.517 377.205 167.288 378.256 169.253 378.542C171.217 378.828 173.215 378.326 174.811 377.145L379.173 225.318C380.062 224.661 380.793 223.813 381.313 222.838C381.834 221.863 382.13 220.784 382.181 219.679Z" fill="url(#paint16_linear_2477_16179)"/>
<path opacity="0.8" d="M7.63047 154.128C7.68212 152.852 8.03009 151.606 8.64683 150.488C9.26357 149.37 10.1322 148.41 11.1839 147.686L213.793 7.14603C215.604 5.89481 217.837 5.41048 220.004 5.7987C222.171 6.18693 224.096 7.41619 225.36 9.21831L366.368 211.278C367.412 212.762 367.933 214.551 367.848 216.363C367.799 217.639 367.451 218.886 366.835 220.004C366.218 221.123 365.348 222.082 364.295 222.805L161.672 363.345C159.861 364.596 157.628 365.08 155.461 364.692C153.294 364.304 151.368 363.075 150.105 361.273L9.09694 159.213C8.05954 157.726 7.54385 155.938 7.63047 154.128ZM366.772 216.311C366.844 214.732 366.389 213.173 365.48 211.88L224.472 9.81979C223.371 8.24812 221.692 7.17606 219.803 6.83794C217.914 6.49982 215.968 6.92313 214.39 8.01535L11.7808 148.555C10.8629 149.186 10.1046 150.022 9.56611 150.996C9.02763 151.971 8.72376 153.058 8.67861 154.171C8.60918 155.75 9.06359 157.307 9.97118 158.602L150.979 360.662C152.079 362.232 153.755 363.303 155.642 363.642C157.529 363.981 159.474 363.56 161.051 362.471L363.661 221.931C364.579 221.3 365.339 220.463 365.879 219.488C366.419 218.512 366.725 217.425 366.772 216.311Z" fill="url(#paint17_linear_2477_16179)"/>
<path opacity="0.8" d="M5.77361 141.275C5.8298 139.989 6.1938 138.736 6.83501 137.619C7.47623 136.503 8.37592 135.557 9.45859 134.861L210.315 5.59885C212.112 4.44408 214.294 4.04793 216.384 4.49702C218.473 4.9461 220.299 6.20389 221.464 7.99538L351.153 208.303C352.06 209.697 352.508 211.34 352.436 213.002C352.38 214.287 352.015 215.54 351.374 216.655C350.733 217.77 349.833 218.715 348.751 219.411L147.89 348.683C146.092 349.836 143.911 350.232 141.822 349.783C139.733 349.334 137.907 348.077 136.741 346.286L7.05207 145.979C6.14616 144.582 5.6992 142.938 5.77361 141.275ZM351.369 212.959C351.436 211.517 351.046 210.089 350.255 208.881L220.57 8.56867C219.553 7.01576 217.965 5.92664 216.149 5.53777C214.334 5.14891 212.438 5.49168 210.874 6.49168L10.032 135.754C9.09419 136.36 8.31488 137.182 7.75894 138.151C7.203 139.119 6.88654 140.207 6.83587 141.322C6.77353 142.764 7.16295 144.19 7.94983 145.401L137.639 345.713C138.65 347.266 140.235 348.356 142.047 348.745C143.86 349.135 145.752 348.791 147.312 347.79L348.173 218.523C349.112 217.919 349.892 217.098 350.448 216.13C351.004 215.162 351.32 214.075 351.369 212.959Z" fill="url(#paint18_linear_2477_16179)"/>
<path opacity="0.8" d="M3.90763 128.419C3.96065 127.121 4.33819 125.857 5.00576 124.744C5.67332 123.63 6.6096 122.701 7.72894 122.042L206.841 4.05293C208.627 2.99812 210.757 2.6922 212.767 3.20192C214.778 3.71164 216.505 4.99563 217.572 6.77369L335.948 205.338C336.729 206.64 337.11 208.143 337.043 209.661C336.987 210.958 336.609 212.22 335.941 213.334C335.274 214.447 334.339 215.377 333.221 216.037L134.109 334.026C132.324 335.082 130.192 335.388 128.181 334.877C126.171 334.366 124.444 333.081 123.379 331.301L5.00277 132.746C4.22277 131.442 3.84207 129.937 3.90763 128.419ZM335.976 209.614C336.033 208.305 335.706 207.008 335.036 205.883L216.655 7.31878C215.734 5.78268 214.242 4.67343 212.505 4.23322C210.769 3.79301 208.928 4.05761 207.386 4.96925L8.29295 122.953C7.32841 123.525 6.52216 124.329 5.94753 125.292C5.3729 126.254 5.04814 127.345 5.00277 128.465C4.94649 129.774 5.27317 131.071 5.94282 132.197L124.295 330.76C125.215 332.297 126.706 333.407 128.442 333.847C130.178 334.288 132.018 334.023 133.559 333.11L332.676 215.121C333.642 214.551 334.45 213.748 335.026 212.786C335.602 211.825 335.929 210.734 335.976 209.614Z" fill="url(#paint19_linear_2477_16179)"/>
<path opacity="0.8" d="M2.02772 115.563C2.0895 114.253 2.48786 112.981 3.18436 111.87C3.88087 110.759 4.85199 109.846 6.00411 109.219L203.354 2.50788C205.13 1.54279 207.216 1.32189 209.155 1.8937C211.094 2.46551 212.726 3.78328 213.694 5.55758L320.761 202.373C321.418 203.58 321.734 204.943 321.673 206.316C321.613 207.625 321.216 208.896 320.52 210.007C319.824 211.117 318.853 212.029 317.701 212.655L120.338 319.371C118.564 320.327 116.484 320.542 114.552 319.97C112.619 319.397 110.992 318.084 110.025 316.316L2.94425 119.501C2.28885 118.295 1.97215 116.934 2.02772 115.563ZM320.597 206.255C320.648 205.075 320.375 203.903 319.807 202.867L212.754 6.06508C211.919 4.54862 210.519 3.42243 208.859 2.93071C207.199 2.43899 205.411 2.62137 203.885 3.4383L6.52584 110.154C5.52937 110.685 4.6895 111.467 4.08993 112.424C3.49036 113.38 3.15202 114.477 3.10874 115.605C3.05838 116.785 3.32972 117.956 3.89371 118.993L110.965 315.809C111.801 317.324 113.199 318.449 114.859 318.941C116.518 319.433 118.304 319.251 119.83 318.436L317.194 211.72C318.187 211.187 319.024 210.403 319.62 209.447C320.217 208.491 320.554 207.395 320.597 206.269V206.255Z" fill="url(#paint20_linear_2477_16179)"/>
<path opacity="0.8" d="M0.138966 102.701C0.196635 101.375 0.611433 100.09 1.3395 98.981C2.06758 97.8718 3.08184 96.9798 4.27515 96.3994L199.89 0.956638C201.65 0.107206 203.673 -0.0139169 205.521 0.619574C207.369 1.25306 208.893 2.59001 209.761 4.33997L305.524 199.412C306.064 200.516 306.321 201.737 306.271 202.965C306.214 204.292 305.799 205.578 305.07 206.688C304.341 207.799 303.325 208.691 302.13 209.271L106.529 304.733C104.771 305.586 102.747 305.71 100.897 305.077C99.0483 304.444 97.5246 303.106 96.6587 301.354L0.88629 106.258C0.345656 105.153 0.0888324 103.93 0.138966 102.701ZM305.228 202.918C305.272 201.868 305.05 200.824 304.584 199.882L208.826 4.80988C208.084 3.30771 206.778 2.16003 205.193 1.61764C203.607 1.07525 201.872 1.18225 200.365 1.91525L4.74988 97.3533C3.72878 97.8507 2.86097 98.6144 2.23801 99.5639C1.61506 100.513 1.26011 101.613 1.21064 102.748C1.16498 103.8 1.38479 104.848 1.84987 105.793L97.5987 300.861C98.3402 302.363 99.6463 303.51 101.232 304.053C102.817 304.595 104.553 304.488 106.059 303.755L301.679 208.322C302.702 207.823 303.571 207.058 304.195 206.107C304.82 205.156 305.176 204.054 305.228 202.918Z" fill="url(#paint21_linear_2477_16179)"/>
</g>
<defs>
<linearGradient id="paint0_linear_2477_16179" x1="334.421" y1="27.7002" x2="334.421" y2="618.255" gradientUnits="userSpaceOnUse">
<stop stop-color="#6900B8"/>
<stop offset="1" stop-color="#FF0047" stop-opacity="0.42"/>
</linearGradient>
<linearGradient id="paint1_linear_2477_16179" x1="325.801" y1="26.4354" x2="325.801" y2="603.308" gradientUnits="userSpaceOnUse">
<stop stop-color="#6900B8"/>
<stop offset="1" stop-color="#FF0047" stop-opacity="0.42"/>
</linearGradient>
<linearGradient id="paint2_linear_2477_16179" x1="317.165" y1="25.1699" x2="317.165" y2="588.366" gradientUnits="userSpaceOnUse">
<stop stop-color="#6900B8"/>
<stop offset="1" stop-color="#FF0047" stop-opacity="0.42"/>
</linearGradient>
<linearGradient id="paint3_linear_2477_16179" x1="308.537" y1="23.8975" x2="308.537" y2="573.425" gradientUnits="userSpaceOnUse">
<stop stop-color="#6900B8"/>
<stop offset="1" stop-color="#FF0047" stop-opacity="0.42"/>
</linearGradient>
<linearGradient id="paint4_linear_2477_16179" x1="299.914" y1="22.6162" x2="299.914" y2="558.519" gradientUnits="userSpaceOnUse">
<stop stop-color="#6900B8"/>
<stop offset="1" stop-color="#FF0047" stop-opacity="0.42"/>
</linearGradient>
<linearGradient id="paint5_linear_2477_16179" x1="291.288" y1="21.3496" x2="291.288" y2="543.603" gradientUnits="userSpaceOnUse">
<stop stop-color="#6900B8"/>
<stop offset="1" stop-color="#FF0047" stop-opacity="0.42"/>
</linearGradient>
<linearGradient id="paint6_linear_2477_16179" x1="282.657" y1="20.0645" x2="282.657" y2="528.642" gradientUnits="userSpaceOnUse">
<stop stop-color="#6900B8"/>
<stop offset="1" stop-color="#FF0047" stop-opacity="0.42"/>
</linearGradient>
<linearGradient id="paint7_linear_2477_16179" x1="274.024" y1="18.7646" x2="274.024" y2="513.751" gradientUnits="userSpaceOnUse">
<stop stop-color="#6900B8"/>
<stop offset="1" stop-color="#FF0047" stop-opacity="0.42"/>
</linearGradient>
<linearGradient id="paint8_linear_2477_16179" x1="265.396" y1="17.4951" x2="265.396" y2="498.811" gradientUnits="userSpaceOnUse">
<stop stop-color="#6900B8"/>
<stop offset="1" stop-color="#FF0047" stop-opacity="0.42"/>
</linearGradient>
<linearGradient id="paint9_linear_2477_16179" x1="256.767" y1="16.2031" x2="256.767" y2="483.918" gradientUnits="userSpaceOnUse">
<stop stop-color="#6900B8"/>
<stop offset="1" stop-color="#FF0047" stop-opacity="0.42"/>
</linearGradient>
<linearGradient id="paint10_linear_2477_16179" x1="248.135" y1="14.9326" x2="248.135" y2="469.037" gradientUnits="userSpaceOnUse">
<stop stop-color="#6900B8"/>
<stop offset="1" stop-color="#FF0047" stop-opacity="0.42"/>
</linearGradient>
<linearGradient id="paint11_linear_2477_16179" x1="239.515" y1="13.5947" x2="239.515" y2="454.114" gradientUnits="userSpaceOnUse">
<stop stop-color="#6900B8"/>
<stop offset="1" stop-color="#FF0047" stop-opacity="0.42"/>
</linearGradient>
<linearGradient id="paint12_linear_2477_16179" x1="230.873" y1="12.3076" x2="230.873" y2="439.21" gradientUnits="userSpaceOnUse">
<stop stop-color="#6900B8"/>
<stop offset="1" stop-color="#FF0047" stop-opacity="0.42"/>
</linearGradient>
<linearGradient id="paint13_linear_2477_16179" x1="222.258" y1="10.9678" x2="222.258" y2="424.322" gradientUnits="userSpaceOnUse">
<stop stop-color="#6900B8"/>
<stop offset="1" stop-color="#FF0047" stop-opacity="0.42"/>
</linearGradient>
<linearGradient id="paint14_linear_2477_16179" x1="213.618" y1="9.65234" x2="213.618" y2="409.45" gradientUnits="userSpaceOnUse">
<stop stop-color="#6900B8"/>
<stop offset="1" stop-color="#FF0047" stop-opacity="0.42"/>
</linearGradient>
<linearGradient id="paint15_linear_2477_16179" x1="204.974" y1="8.33008" x2="204.974" y2="394.565" gradientUnits="userSpaceOnUse">
<stop stop-color="#6900B8"/>
<stop offset="1" stop-color="#FF0047" stop-opacity="0.42"/>
</linearGradient>
<linearGradient id="paint16_linear_2477_16179" x1="196.355" y1="7.00488" x2="196.355" y2="379.685" gradientUnits="userSpaceOnUse">
<stop stop-color="#6900B8"/>
<stop offset="1" stop-color="#FF0047" stop-opacity="0.42"/>
</linearGradient>
<linearGradient id="paint17_linear_2477_16179" x1="187.739" y1="5.66797" x2="187.739" y2="364.823" gradientUnits="userSpaceOnUse">
<stop stop-color="#6900B8"/>
<stop offset="1" stop-color="#FF0047" stop-opacity="0.42"/>
</linearGradient>
<linearGradient id="paint18_linear_2477_16179" x1="179.105" y1="4.31641" x2="179.105" y2="349.963" gradientUnits="userSpaceOnUse">
<stop stop-color="#6900B8"/>
<stop offset="1" stop-color="#FF0047" stop-opacity="0.42"/>
</linearGradient>
<linearGradient id="paint19_linear_2477_16179" x1="170.475" y1="2.96094" x2="170.475" y2="335.119" gradientUnits="userSpaceOnUse">
<stop stop-color="#6900B8"/>
<stop offset="1" stop-color="#FF0047" stop-opacity="0.42"/>
</linearGradient>
<linearGradient id="paint20_linear_2477_16179" x1="161.851" y1="1.58203" x2="161.851" y2="320.284" gradientUnits="userSpaceOnUse">
<stop stop-color="#6900B8"/>
<stop offset="1" stop-color="#FF0047" stop-opacity="0.42"/>
</linearGradient>
<linearGradient id="paint21_linear_2477_16179" x1="153.205" y1="0.21875" x2="153.205" y2="305.476" gradientUnits="userSpaceOnUse">
<stop stop-color="#6900B8"/>
<stop offset="1" stop-color="#FF0047" stop-opacity="0.42"/>
</linearGradient>
</defs>
</svg>
