<svg width="14" height="18" viewBox="0 0 14 18" fill="none" xmlns="http://www.w3.org/2000/svg">
<path d="M9.54578 5.20679H13.3641L8.67798 0.520679V4.33899C8.67798 4.85967 9.0251 5.20679 9.54578 5.20679ZM9.54578 6.94238C8.07052 6.94238 6.94238 5.81425 6.94238 4.33899V0H2.60339C1.12814 0 0 1.12814 0 2.60339V14.7526C0 16.2278 1.12814 17.356 2.60339 17.356H11.2814C12.7566 17.356 13.8848 16.2278 13.8848 14.7526V6.94238H9.54578ZM4.33899 5.20679H5.20679C5.72747 5.20679 6.07458 5.55391 6.07458 6.07458C6.07458 6.59526 5.72747 6.94238 5.20679 6.94238H4.33899C3.81831 6.94238 3.47119 6.59526 3.47119 6.07458C3.47119 5.55391 3.81831 5.20679 4.33899 5.20679ZM10.24 10.0665L8.24408 12.6698C7.98374 13.017 7.37628 13.1037 7.02916 12.8434C7.02916 12.8434 7.02916 12.8434 6.94238 12.8434L6.16137 12.1492L5.03323 13.6244C4.77289 13.9715 4.16543 14.0583 3.81831 13.798C3.47119 13.5376 3.38441 12.9302 3.64475 12.5831L5.38035 10.4136C5.55391 10.24 5.72747 10.1532 5.9878 10.0665C6.24814 10.0665 6.4217 10.1532 6.68204 10.3268L7.46306 11.021L8.93832 9.11188C9.19866 8.76476 9.80612 8.67798 10.1532 8.93832C10.4136 9.11188 10.5004 9.71934 10.24 10.0665Z" fill="white"/>
</svg>
